<svg xmlns="http://www.w3.org/2000/svg" viewBox="0 0 512.84 268.28"><defs><style>.a{fill:#d00;}.b{fill:#ffce00;}.c{fill:#c60b1e;}.d{fill:#ffc400;}.ai,.aj,.ak,.bi,.bs,.e,.k{fill:#ad1519;}.aa,.ab,.ac,.ad,.ae,.af,.ag,.ah,.ai,.aj,.ak,.al,.am,.an,.ao,.ap,.aq,.ar,.as,.at,.au,.av,.aw,.ax,.ay,.az,.ba,.bb,.bc,.bd,.be,.bf,.bg,.bh,.bi,.bj,.bm,.bo,.bp,.bq,.br,.bs,.bt,.bu,.bv,.e,.f,.h,.i,.j,.k,.l,.m,.n,.o,.p,.q,.r,.s,.t,.u,.v,.w,.x,.y,.z{stroke:#000;}.af,.aj,.bu,.e,.j{stroke-linejoin:round;}.al,.ao,.bk,.bq,.e,.f,.i,.j,.k,.l,.m{stroke-width:0.26px;}.af,.ag,.bj,.bk,.bm,.bu,.bv,.f,.g,.h,.j{fill:#c8b100;}.h{stroke-width:0.3px;}.aa,.ab,.ac,.ah,.al,.am,.aq,.ar,.as,.at,.au,.av,.aw,.ax,.ay,.az,.ba,.bb,.bc,.bd,.i,.n,.o,.p,.q,.r,.s,.t,.u,.v,.w,.x,.y,.z{fill:none;}.be,.bh,.bl,.l{fill:#058e6e;}.an,.ap,.bx,.m{fill:#fff;}.n{stroke-width:0.01px;}.o{stroke-width:0.02px;}.p{stroke-width:0.03px;}.q{stroke-width:0.04px;}.br,.r{stroke-width:0.05px;}.s{stroke-width:0.06px;}.t{stroke-width:0.07px;}.u{stroke-width:0.08px;}.v{stroke-width:0.09px;}.w{stroke-width:0.1px;}.x{stroke-width:0.11px;}.y{stroke-width:0.12px;}.z{stroke-width:0.13px;}.aa{stroke-width:0.14px;}.ab{stroke-width:0.15px;}.ac{stroke-width:0.18px;}.ad,.ao,.bt{fill:#005bbf;}.ad,.ae,.af,.ag,.ah,.ai,.aj,.ap,.be,.bo,.bp{stroke-width:0.39px;}.ae,.bf{fill:#ccc;}.ak{stroke-width:0.27px;}.al{stroke-linecap:round;}.am,.an{stroke-width:0.21px;}.aq{stroke-width:0.23px;}.ar{stroke-width:0.28px;}.as{stroke-width:0.33px;}.at{stroke-width:0.37px;}.au{stroke-width:0.42px;}.av,.bm{stroke-width:0.46px;}.aw{stroke-width:0.51px;}.ax{stroke-width:0.56px;}.ay{stroke-width:0.6px;}.az{stroke-width:0.63px;}.ba{stroke-width:0.68px;}.bb{stroke-width:0.73px;}.bc{stroke-width:0.77px;}.bd{stroke-width:0.91px;}.bf,.bg,.bh,.bi,.bj{stroke-width:0.52px;}.bg{fill:#ffd691;}.bk{stroke:#c8b100;}.bn{fill:#0039f0;}.bo{fill:#db4446;}.bp{fill:#ed72aa;}.bs,.bt{stroke-width:0.61px;}.bu,.bv{stroke-width:0.34px;}.bw{fill:#009246;}.by{fill:#ce2b37;}</style></defs><rect x="256.33" width="256.5" height="153.9"/><rect class="a" x="256.33" y="51.3" width="256.5" height="102.6"/><rect class="b" x="256.33" y="102.6" width="256.5" height="51.3"/><rect class="c" width="256.39" height="153.9"/><rect class="d" y="38.48" width="256.39" height="76.95"/><path class="e" d="M182.93,375.57a.75.75,0,0,1-.27-.05,3.92,3.92,0,0,1-.39-.29l-.23-.16-.21-.26a.82.82,0,0,1-.14-.64.83.83,0,0,1,.49-.46,4.59,4.59,0,0,1,.54-.18,2.66,2.66,0,0,1,.38-.13l.45-.1a1.09,1.09,0,0,1,.19-.08,1.24,1.24,0,0,1,.31-.05,1.91,1.91,0,0,1,.39-.08c.18,0,.46,0,.56,0h.56l.75,0a2.53,2.53,0,0,1,.39,0,3.24,3.24,0,0,1,.5.13c.08,0,.54.18.71.23s.6.12.8.2a1,1,0,0,1,.4.34,1.05,1.05,0,0,1,.16.32.5.5,0,0,1,0,.34,2.12,2.12,0,0,1-.18.25l-.21.32-.27.19a.57.57,0,0,1-.35.15,25.94,25.94,0,0,0-2.72-.26,21,21,0,0,0-2.61.26Z" transform="translate(-125.5 -307.16)"/><ellipse class="f" cx="60.05" cy="66.39" rx="0.47" ry="0.77"/><ellipse class="f" cx="60.06" cy="66.39" rx="0.22" ry="0.71"/><ellipse class="g" cx="60.06" cy="65.57" rx="0.32" ry="0.27"/><path class="h" d="M186,372.65v.17h-.87v-.17h.32v-.41h-.21v-.18h.21v-.17h.21v.17h.21v.18h-.21v.41H186" transform="translate(-125.5 -307.16)"/><path class="i" d="M185.65,372.48a.26.26,0,0,1,.22.33.33.33,0,0,1-.39.19.26.26,0,0,1-.22-.33.31.31,0,0,1,.22-.19" transform="translate(-125.5 -307.16)"/><path class="f" d="M185.56,375.52h-1.64l0-.36-.08-.38-.08-.47c-.45-.54-.87-.89-1-.82a.33.33,0,0,1,.16-.22c.4-.21,1.23.31,1.86,1.16l.16.23h1.35l.16-.23c.62-.85,1.46-1.37,1.86-1.16a.37.37,0,0,1,.16.22c-.14-.07-.56.28-1,.82l-.08.47-.08.38,0,.36Z" transform="translate(-125.5 -307.16)"/><path class="i" d="M182.78,373.48c.31-.17,1,.35,1.62,1.15m3.95-1.15c-.32-.17-1,.35-1.62,1.15" transform="translate(-125.5 -307.16)"/><path class="f" d="M183.13,376.19a1.29,1.29,0,0,0-.2-.33,12,12,0,0,1,5.25,0l-.17.28a1.18,1.18,0,0,0-.13.25,9.2,9.2,0,0,0-2.33-.26,9,9,0,0,0-2.34.27l-.08-.21h0" transform="translate(-125.5 -307.16)"/><path class="f" d="M185.56,377a11.38,11.38,0,0,0,2.08-.19c.23-.06.36-.15.34-.26a.26.26,0,0,0-.13-.12,11.09,11.09,0,0,0-4.59,0,.22.22,0,0,0-.13.12c0,.11.11.2.34.26A11.51,11.51,0,0,0,185.56,377Z" transform="translate(-125.5 -307.16)"/><path class="f" d="M188.23,375.52l-.21-.16a.8.8,0,0,1-.43.07.43.43,0,0,1-.32-.3.88.88,0,0,1-.49.19.54.54,0,0,1-.37-.19.84.84,0,0,1-.45.14.72.72,0,0,1-.42-.25.76.76,0,0,1-.43.26.53.53,0,0,1-.38-.16.51.51,0,0,1-.37.22.67.67,0,0,1-.5-.19.8.8,0,0,1-.34.28.62.62,0,0,1-.42-.08l-.07.13a.17.17,0,0,1-.11.06l.07.14a10.59,10.59,0,0,1,2.57-.28,10.43,10.43,0,0,1,2.6.29l.07-.17Z" transform="translate(-125.5 -307.16)"/><path class="f" d="M185.56,374.72l.1,0a.23.23,0,0,0,0,.12.36.36,0,0,0,.38.32.38.38,0,0,0,.36-.23s0-.11.05-.11,0,.12,0,.12a.36.36,0,0,0,.38.28.36.36,0,0,0,.38-.33.08.08,0,0,0,0,0l.12-.1.07.13a.25.25,0,0,0,0,.14.34.34,0,0,0,.37.32.41.41,0,0,0,.3-.14l.08-.09v.11a.2.2,0,0,0,.16.22.52.52,0,0,0,.31-.12,2.51,2.51,0,0,0,.28-.23v.13a1.36,1.36,0,0,1-.33.34.62.62,0,0,1-.33.07.29.29,0,0,1-.23-.18.6.6,0,0,1-.27.06.53.53,0,0,1-.49-.26.59.59,0,0,1-.82,0,.56.56,0,0,1-.38.14.58.58,0,0,0-.91,0,.53.53,0,0,1-.37-.14.59.59,0,0,1-.43.18.6.6,0,0,1-.4-.15.52.52,0,0,1-.48.26.57.57,0,0,1-.27-.06.3.3,0,0,1-.24.18.6.6,0,0,1-.32-.07,1.38,1.38,0,0,1-.35-.34l0-.13a3,3,0,0,0,.27.23.54.54,0,0,0,.32.12.21.21,0,0,0,.16-.22v-.11l.08.09a.38.38,0,0,0,.3.14.34.34,0,0,0,.36-.32.35.35,0,0,0,0-.14l.06-.13.12.1v0a.36.36,0,0,0,.38.33.36.36,0,0,0,.38-.28.49.49,0,0,1,0-.12s0,.12.06.11a.37.37,0,0,0,.36.23.36.36,0,0,0,.38-.32.23.23,0,0,0,0-.12l.1,0Z" transform="translate(-125.5 -307.16)"/><path class="j" d="M185.56,375.57a10.63,10.63,0,0,0-2.63.29.1.1,0,0,1-.11-.06.08.08,0,0,1,.06-.09,11.7,11.7,0,0,1,5.35,0c.05,0,.08.05.06.09a.09.09,0,0,1-.11.06A10.6,10.6,0,0,0,185.56,375.57Z" transform="translate(-125.5 -307.16)"/><path class="f" d="M182.06,375.19s-.13-.15-.23-.23a1.1,1.1,0,0,0-.23-.1.27.27,0,0,1,.2-.08.19.19,0,0,1,.15.06l0-.06a.17.17,0,0,1,.12.09.45.45,0,0,1,0,.23.2.2,0,0,1,0,.09Z" transform="translate(-125.5 -307.16)"/><path class="f" d="M182.7,375l0,.2-.47.05-.08,0,0-.07.36-.27.21.13" transform="translate(-125.5 -307.16)"/><path class="f" d="M182.06,375.11a.14.14,0,0,1,.18,0c.06.05.09.12,0,.15a.14.14,0,0,1-.18,0C182,375.22,182,375.15,182.06,375.11Z" transform="translate(-125.5 -307.16)"/><path class="f" d="M182.94,375.15A.1.1,0,0,1,183,375s.1,0,.12.09a.09.09,0,0,1-.05.12S183,375.21,182.94,375.15Z" transform="translate(-125.5 -307.16)"/><path class="f" d="M183.16,374.89l.18.15.41-.2,0-.07-.06,0-.48,0-.09.21" transform="translate(-125.5 -307.16)"/><path class="f" d="M183.64,374.19l-.22.2.29.35.08,0,.06-.06.1-.42-.31-.1" transform="translate(-125.5 -307.16)"/><path class="f" d="M184.42,374.67l-.08.19-.48,0-.06-.05,0-.07.42-.19.17.16" transform="translate(-125.5 -307.16)"/><ellipse class="f" cx="58.29" cy="67.61" rx="0.17" ry="0.14"/><path class="f" d="M184.6,374.87c0-.07,0-.12.07-.12a.09.09,0,0,1,.1.1c0,.06,0,.11-.07.11S184.61,374.92,184.6,374.87Z" transform="translate(-125.5 -307.16)"/><path class="f" d="M184.91,374.65l.14.17.45-.13.05-.05-.05-.06-.45-.12-.14.19" transform="translate(-125.5 -307.16)"/><path class="f" d="M185.55,374l-.29.16.22.43.07,0,.08,0,.22-.43-.3-.16" transform="translate(-125.5 -307.16)"/><path class="f" d="M186.2,374.65l-.13.17-.46-.13-.05-.05.05-.06.46-.12.13.19" transform="translate(-125.5 -307.16)"/><ellipse class="f" cx="60.05" cy="67.47" rx="0.17" ry="0.14"/><path class="f" d="M186.52,374.87c0-.07,0-.12-.07-.12a.09.09,0,0,0-.1.1c0,.06,0,.11.07.11S186.51,374.92,186.52,374.87Z" transform="translate(-125.5 -307.16)"/><path class="f" d="M186.69,374.67l.09.19.48,0,.06-.05,0-.07-.42-.19-.18.16" transform="translate(-125.5 -307.16)"/><path class="f" d="M187.47,374.19l.23.2-.29.35-.08,0-.06-.06-.1-.42.3-.1" transform="translate(-125.5 -307.16)"/><path class="f" d="M188,374.89l-.17.15-.42-.2,0-.07.06,0,.48,0,.08.21" transform="translate(-125.5 -307.16)"/><ellipse class="f" cx="61.82" cy="67.61" rx="0.17" ry="0.14"/><path class="f" d="M188.18,375.15a.1.1,0,0,0-.05-.13s-.1,0-.12.09,0,.11,0,.12S188.15,375.21,188.18,375.15Z" transform="translate(-125.5 -307.16)"/><path class="f" d="M189,375.19a1.82,1.82,0,0,1,.22-.23,1.1,1.1,0,0,1,.23-.1.27.27,0,0,0-.2-.08.19.19,0,0,0-.15.06l0-.06a.17.17,0,0,0-.12.09.45.45,0,0,0,0,.23.16.16,0,0,0,.05.09Z" transform="translate(-125.5 -307.16)"/><path class="f" d="M188.35,375l0,.2.48.05.07,0,0-.07-.36-.27-.21.13" transform="translate(-125.5 -307.16)"/><path class="f" d="M189,375.11a.14.14,0,0,0-.18,0c-.06.05-.08.12,0,.15a.14.14,0,0,0,.18,0C189,375.22,189,375.15,189,375.11Z" transform="translate(-125.5 -307.16)"/><path class="k" d="M183,376.2l.11-.15.22,0-.13.17-.2-.06" transform="translate(-125.5 -307.16)"/><path class="l" d="M183.91,376.05l-.24,0a.13.13,0,0,1-.13-.08.12.12,0,0,1,.09-.11l.24,0,.25,0a.1.1,0,0,1,.12.07.1.1,0,0,1-.09.11l-.24,0" transform="translate(-125.5 -307.16)"/><ellipse class="m" cx="59.21" cy="68.73" rx="0.15" ry="0.13"/><path class="k" d="M185.57,376h-.33a.1.1,0,0,1-.11-.09.09.09,0,0,1,.1-.1h.67c.07,0,.12,0,.12.1s-.05.09-.12.09h-.33" transform="translate(-125.5 -307.16)"/><ellipse class="m" cx="60.9" cy="68.73" rx="0.15" ry="0.13"/><path class="l" d="M187.21,376.05l.23,0a.13.13,0,0,0,.13-.08.1.1,0,0,0-.09-.11l-.24,0-.24,0a.11.11,0,0,0-.13.07.1.1,0,0,0,.09.11l.25,0" transform="translate(-125.5 -307.16)"/><path class="k" d="M188.14,376.21l-.08-.16-.23,0,.11.18.2,0" transform="translate(-125.5 -307.16)"/><path class="e" d="M185.55,376.78a10.08,10.08,0,0,1-2.15-.2,9.36,9.36,0,0,1,2.15-.22,9.54,9.54,0,0,1,2.17.22A10.28,10.28,0,0,1,185.55,376.78Z" transform="translate(-125.5 -307.16)"/><path class="n" d="M185.94,376.75v-.35m-.2.36v-.37m-.15.38v-.39" transform="translate(-125.5 -307.16)"/><path class="o" d="M185.48,376.77v-.39" transform="translate(-125.5 -307.16)"/><path class="p" d="M185.36,376.77v-.39" transform="translate(-125.5 -307.16)"/><path class="q" d="M185.25,376.77v-.39" transform="translate(-125.5 -307.16)"/><path class="q" d="M185.14,376.77v-.39" transform="translate(-125.5 -307.16)"/><path class="r" d="M185,376.77v-.39" transform="translate(-125.5 -307.16)"/><path class="s" d="M184.85,376.75v-.35m.09.36v-.37" transform="translate(-125.5 -307.16)"/><path class="t" d="M184.68,376.74v-.33m.09.34v-.35" transform="translate(-125.5 -307.16)"/><path class="u" d="M184.44,376.72v-.29m.08.29v-.3m.08.31v-.31" transform="translate(-125.5 -307.16)"/><path class="v" d="M184.37,376.72v-.28" transform="translate(-125.5 -307.16)"/><path class="w" d="M184.29,376.7v-.26" transform="translate(-125.5 -307.16)"/><path class="x" d="M184.21,376.69v-.24" transform="translate(-125.5 -307.16)"/><path class="y" d="M184,376.67v-.19m.09.2v-.21" transform="translate(-125.5 -307.16)"/><path class="y" d="M184,376.66v-.17" transform="translate(-125.5 -307.16)"/><path class="z" d="M183.88,376.64v-.14" transform="translate(-125.5 -307.16)"/><path class="aa" d="M183.79,376.63v-.11" transform="translate(-125.5 -307.16)"/><path class="ab" d="M183.71,376.62v-.09" transform="translate(-125.5 -307.16)"/><path class="ac" d="M183.61,376.6v0" transform="translate(-125.5 -307.16)"/><path class="ad" d="M190.89,409a3.13,3.13,0,0,1-1.34-.27,3.2,3.2,0,0,0-1.32-.25,3.48,3.48,0,0,0-1.34.25,3.4,3.4,0,0,1-2.68,0,3.31,3.31,0,0,0-1.3-.24,3.2,3.2,0,0,0-1.32.25,3.27,3.27,0,0,1-1.35.27v.74a3.27,3.27,0,0,0,1.35-.27,3.2,3.2,0,0,1,1.32-.25,3.31,3.31,0,0,1,1.3.24,3.09,3.09,0,0,0,1.34.28,3.26,3.26,0,0,0,1.34-.26,3.3,3.3,0,0,1,1.34-.26,3.37,3.37,0,0,1,1.32.25,3.1,3.1,0,0,0,1.34.27V409Z" transform="translate(-125.5 -307.16)"/><path class="ae" d="M190.89,409.69a3.13,3.13,0,0,1-1.34-.27,3.37,3.37,0,0,0-1.32-.25,3.3,3.3,0,0,0-1.34.26,3.26,3.26,0,0,1-1.34.26,3.09,3.09,0,0,1-1.34-.28,3.31,3.31,0,0,0-1.3-.24,3.2,3.2,0,0,0-1.32.25,3.27,3.27,0,0,1-1.35.27v.74a3.27,3.27,0,0,0,1.35-.27,3.2,3.2,0,0,1,1.32-.25,3.14,3.14,0,0,1,1.3.25,3.52,3.52,0,0,0,2.68,0,3.3,3.3,0,0,1,1.34-.26,3.2,3.2,0,0,1,1.32.26,3.26,3.26,0,0,0,1.34.26v-.74" transform="translate(-125.5 -307.16)"/><path class="ad" d="M190.89,410.43a3.3,3.3,0,0,1-1.34-.26,3.2,3.2,0,0,0-1.32-.26,3.3,3.3,0,0,0-1.34.26,3.52,3.52,0,0,1-2.68,0,3.14,3.14,0,0,0-1.3-.25,3.2,3.2,0,0,0-1.32.25,3.27,3.27,0,0,1-1.35.27v.74a3.11,3.11,0,0,0,1.35-.27,3.2,3.2,0,0,1,1.32-.25,3.31,3.31,0,0,1,1.3.25,3.52,3.52,0,0,0,2.68,0,3.3,3.3,0,0,1,1.34-.26,3.2,3.2,0,0,1,1.32.26,3.11,3.11,0,0,0,1.34.26v-.74" transform="translate(-125.5 -307.16)"/><path class="ae" d="M190.89,411.92a3.25,3.25,0,0,1-1.34-.27,3.2,3.2,0,0,0-1.32-.25,3.3,3.3,0,0,0-1.34.25,3.4,3.4,0,0,1-2.68,0,3.31,3.31,0,0,0-1.3-.24,3.2,3.2,0,0,0-1.32.25,3.27,3.27,0,0,1-1.35.27v-.74a3.11,3.11,0,0,0,1.35-.28,3.2,3.2,0,0,1,1.32-.25,3.31,3.31,0,0,1,1.3.25,3.52,3.52,0,0,0,2.68,0,3.3,3.3,0,0,1,1.34-.26,3.2,3.2,0,0,1,1.32.26,3.14,3.14,0,0,0,1.34.26v.75" transform="translate(-125.5 -307.16)"/><path class="ad" d="M190.89,412.66a3.1,3.1,0,0,1-1.34-.27,3.2,3.2,0,0,0-1.32-.26,3.3,3.3,0,0,0-1.34.26,3.4,3.4,0,0,1-2.68,0,3.31,3.31,0,0,0-1.3-.25,3.2,3.2,0,0,0-1.32.26,3.27,3.27,0,0,1-1.35.27v-.74a3.27,3.27,0,0,0,1.35-.27,3.2,3.2,0,0,1,1.32-.25,3.31,3.31,0,0,1,1.3.24,3.4,3.4,0,0,0,2.68,0,3.3,3.3,0,0,1,1.34-.25,3.2,3.2,0,0,1,1.32.25,3.25,3.25,0,0,0,1.34.27v.74Z" transform="translate(-125.5 -307.16)"/><path class="af" d="M182.56,405.9a.67.67,0,0,1,.05.19.9.9,0,0,1-1,.81h7.84a.89.89,0,0,1-1-.81.68.68,0,0,1,0-.19.36.36,0,0,1-.15,0H182.7Z" transform="translate(-125.5 -307.16)"/><path class="ag" d="M182.7,405.44h5.71c.2,0,.35.1.35.24s-.15.24-.35.24H182.7c-.19,0-.34-.11-.34-.24S182.51,405.44,182.7,405.44Z" transform="translate(-125.5 -307.16)"/><path class="ag" d="M181.66,408.7h7.82v-1.8h-7.82Z" transform="translate(-125.5 -307.16)"/><path class="ae" d="M182.78,405.14h5.56V380.63h-5.56Z" transform="translate(-125.5 -307.16)"/><path class="ah" d="M186.74,380.67v24.46m.62-24.46v24.46" transform="translate(-125.5 -307.16)"/><path class="ag" d="M181.76,378.69h7.62v-1.8h-7.62v1.8Z" transform="translate(-125.5 -307.16)"/><path class="af" d="M182.56,379.89a.35.35,0,0,1,.14,0h5.71a.41.41,0,0,1,.16,0,.44.44,0,0,1-.34-.41.45.45,0,0,1,.35-.41.47.47,0,0,1-.17,0H182.7l-.16,0h0a.4.4,0,0,1,.33.39.44.44,0,0,1-.34.41Z" transform="translate(-125.5 -307.16)"/><path class="ag" d="M182.7,379.86h5.71c.2,0,.35.11.35.24s-.15.25-.35.25H182.7c-.19,0-.34-.11-.34-.25S182.51,379.86,182.7,379.86Z" transform="translate(-125.5 -307.16)"/><path class="ag" d="M182.7,378.69h5.71c.2,0,.36.09.36.2s-.16.21-.36.21H182.7c-.19,0-.34-.09-.34-.21S182.51,378.69,182.7,378.69Z" transform="translate(-125.5 -307.16)"/><path class="ai" d="M181.05,399.08c-.78.4-1.3.81-1.22,1s.29.33.64.54c.56.35.89,1,.63,1.25a1.71,1.71,0,0,0,.75-1.38A1.73,1.73,0,0,0,181.05,399.08Z" transform="translate(-125.5 -307.16)"/><path class="aj" d="M194,389.8a19.76,19.76,0,0,0-5.64-.86,20,20,0,0,0-2.66.22c-3.32.5-5.86,1.7-5.65,2.67,0,0,0,.06,0,.08s-1.24-2.53-1.26-2.62c-.22-1.08,2.58-2.41,6.27-3a20.32,20.32,0,0,1,3.27-.24,19.61,19.61,0,0,1,5.65.69v3" transform="translate(-125.5 -307.16)"/><path class="ai" d="M182.77,392.88c-1.54-.1-2.59-.47-2.71-1.05s.42-1,1.35-1.44c.42,0,.88.09,1.37.09v2.4" transform="translate(-125.5 -307.16)"/><path class="ai" d="M188.35,391a5,5,0,0,1,2,.62l0,.05c.17.32-.67,1-2.08,1.74V391" transform="translate(-125.5 -307.16)"/><path class="aj" d="M179.32,397.61c-.15-.4,1.35-1.19,3.48-1.89,1-.31,1.77-.64,2.76-1,2.95-1.18,5.13-2.53,4.86-3l0-.05a15.89,15.89,0,0,1,.41,2.54c.26.45-1.73,1.77-4.45,2.94-.87.38-2.7,1-3.57,1.26-1.55.49-3.09,1.4-2.95,1.74l-.51-2.49Z" transform="translate(-125.5 -307.16)"/><path class="ak" d="M236.55,375a1.16,1.16,0,0,1-.43.27c-.18,0-.42-.15-.42-.15a.81.81,0,0,1-.37.2c-.2,0-.48-.2-.48-.2a1.09,1.09,0,0,1-.36.3.54.54,0,0,1-.39-.07.63.63,0,0,1-.22.19.35.35,0,0,1-.17,0l-.2-.12-.23-.22-.22-.07s-.09-.28-.1-.33,0-.18,0-.18c0-.2.3-.43.79-.53a1.63,1.63,0,0,1,.7,0,2,2,0,0,1,1.09-.25,2.13,2.13,0,0,1,1,.21,2.16,2.16,0,0,1,1-.21,1.94,1.94,0,0,1,1.09.25,1.68,1.68,0,0,1,.71,0c.48.1.83.33.78.53,0,0,0,.13,0,.18s-.11.33-.11.33l-.21.07-.24.22-.2.12a.3.3,0,0,1-.16,0,.53.53,0,0,1-.22-.19.56.56,0,0,1-.39.07,1.06,1.06,0,0,1-.37-.3s-.28.24-.48.2a.88.88,0,0,1-.37-.2s-.23.19-.41.15a1.14,1.14,0,0,1-.44-.27Z" transform="translate(-125.5 -307.16)"/><ellipse class="f" cx="111.04" cy="66.55" rx="0.47" ry="0.6"/><ellipse class="f" cx="111.05" cy="66.55" rx="0.22" ry="0.56"/><ellipse class="g" cx="111.05" cy="65.86" rx="0.32" ry="0.27"/><path class="h" d="M237,372.92v.18h-.86v-.18h.32v-.4h-.21v-.18h.21v-.17h.21v.17h.21v.18h-.21v.4H237" transform="translate(-125.5 -307.16)"/><path class="i" d="M236.64,372.76a.27.27,0,0,1,.21.34.32.32,0,0,1-.39.18.26.26,0,0,1-.21-.34.28.28,0,0,1,.22-.18" transform="translate(-125.5 -307.16)"/><path class="al" d="M233,374.88a.88.88,0,0,1,.9-1.22,1,1,0,0,1,.47.11" transform="translate(-125.5 -307.16)"/><path class="i" d="M234.72,374.24a.49.49,0,0,1-.1-.25c0-.36.41-.64.9-.64a1.29,1.29,0,0,1,.57.13" transform="translate(-125.5 -307.16)"/><path class="i" d="M238.37,374.25a.51.51,0,0,0,.09-.26c0-.36-.41-.64-.9-.64a1.26,1.26,0,0,0-.57.13" transform="translate(-125.5 -307.16)"/><path class="al" d="M240.1,374.88a.88.88,0,0,0-.9-1.22,1,1,0,0,0-.47.11" transform="translate(-125.5 -307.16)"/><ellipse class="am" cx="107.2" cy="67.31" rx="0.15" ry="0.13"/><ellipse class="am" cx="107.25" cy="66.82" rx="0.15" ry="0.13"/><ellipse class="am" cx="107.6" cy="66.46" rx="0.15" ry="0.13"/><ellipse class="am" cx="108.06" cy="66.26" rx="0.15" ry="0.13"/><ellipse class="am" cx="108.56" cy="66.27" rx="0.15" ry="0.13"/><ellipse class="an" cx="108.86" cy="66.82" rx="0.15" ry="0.13"/><ellipse class="am" cx="108.94" cy="66.36" rx="0.15" ry="0.13"/><ellipse class="am" cx="109.33" cy="66.07" rx="0.15" ry="0.13"/><ellipse class="am" cx="109.81" cy="65.93" rx="0.15" ry="0.13"/><ellipse class="am" cx="110.31" cy="65.94" rx="0.15" ry="0.13"/><ellipse class="am" cx="111.77" cy="65.94" rx="0.15" ry="0.13"/><ellipse class="am" cx="112.26" cy="65.93" rx="0.15" ry="0.13"/><ellipse class="am" cx="112.74" cy="66.07" rx="0.15" ry="0.13"/><ellipse class="am" cx="113.13" cy="66.36" rx="0.15" ry="0.13"/><ellipse class="an" cx="113.22" cy="66.82" rx="0.15" ry="0.13"/><ellipse class="am" cx="113.52" cy="66.27" rx="0.15" ry="0.13"/><ellipse class="am" cx="114.01" cy="66.26" rx="0.15" ry="0.13"/><ellipse class="am" cx="114.47" cy="66.46" rx="0.15" ry="0.13"/><ellipse class="am" cx="114.82" cy="66.82" rx="0.15" ry="0.13"/><ellipse class="am" cx="114.88" cy="67.31" rx="0.15" ry="0.13"/><path class="f" d="M234.13,376.19a1.29,1.29,0,0,0-.2-.33,12,12,0,0,1,5.25,0s-.08.11-.18.28a2.08,2.08,0,0,0-.13.25,9.11,9.11,0,0,0-2.32-.26,9,9,0,0,0-2.35.27.83.83,0,0,0-.08-.21h0" transform="translate(-125.5 -307.16)"/><path class="f" d="M236.55,377a11.51,11.51,0,0,0,2.09-.19c.22-.06.35-.15.33-.26s-.06-.09-.13-.12a9.59,9.59,0,0,0-2.29-.24,9.74,9.74,0,0,0-2.3.24.2.2,0,0,0-.12.12c0,.11.11.2.33.26A11.51,11.51,0,0,0,236.55,377Z" transform="translate(-125.5 -307.16)"/><path class="f" d="M239.22,375.52l-.2-.16a.85.85,0,0,1-.44.07.43.43,0,0,1-.32-.3.88.88,0,0,1-.49.19.53.53,0,0,1-.36-.19.89.89,0,0,1-.46.14.72.72,0,0,1-.41-.25.8.8,0,0,1-.43.26.56.56,0,0,1-.39-.16.47.47,0,0,1-.36.22.7.7,0,0,1-.51-.19.82.82,0,0,1-.33.28.64.64,0,0,1-.43-.08l-.07.13s-.1.06-.1.06l.06.14a10.71,10.71,0,0,1,2.57-.28,10.52,10.52,0,0,1,2.61.29l.06-.17Z" transform="translate(-125.5 -307.16)"/><path class="f" d="M236.56,374.72l.09,0a.43.43,0,0,0,0,.12.36.36,0,0,0,.39.32.39.39,0,0,0,.36-.23s0-.11.05-.11,0,.12,0,.12a.35.35,0,0,0,.37.28.36.36,0,0,0,.38-.33v0l.12-.1.06.13a.35.35,0,0,0,0,.14.34.34,0,0,0,.36.32.38.38,0,0,0,.3-.14l.08-.09v.11a.21.21,0,0,0,.17.22.52.52,0,0,0,.31-.12,1.85,1.85,0,0,0,.27-.23v.13a1.19,1.19,0,0,1-.33.34.58.58,0,0,1-.32.07.29.29,0,0,1-.23-.18.64.64,0,0,1-.28.06.52.52,0,0,1-.48-.26.6.6,0,0,1-.4.15.59.59,0,0,1-.43-.18.53.53,0,0,1-.37.14.58.58,0,0,1-.46-.22.56.56,0,0,1-.45.22.56.56,0,0,1-.38-.14.56.56,0,0,1-.42.18.58.58,0,0,1-.4-.15.53.53,0,0,1-.49.26.6.6,0,0,1-.27-.06.29.29,0,0,1-.23.18.58.58,0,0,1-.32-.07,1.38,1.38,0,0,1-.35-.34l0-.13a2.51,2.51,0,0,0,.28.23.52.52,0,0,0,.31.12.21.21,0,0,0,.17-.22v-.11l.07.09a.41.41,0,0,0,.3.14.34.34,0,0,0,.37-.32.25.25,0,0,0,0-.14l.07-.13.12.1a.08.08,0,0,0,0,0,.36.36,0,0,0,.38.33.36.36,0,0,0,.38-.28s0-.12,0-.12,0,.12,0,.11a.38.38,0,0,0,.36.23.36.36,0,0,0,.38-.32.23.23,0,0,0,0-.12l.1,0Z" transform="translate(-125.5 -307.16)"/><path class="j" d="M236.55,375.57a10.54,10.54,0,0,0-2.62.29.09.09,0,0,1-.11-.06s0-.08.06-.09a10.19,10.19,0,0,1,2.67-.31,10.33,10.33,0,0,1,2.68.31.08.08,0,0,1,.06.09.1.1,0,0,1-.11.06A10.63,10.63,0,0,0,236.55,375.57Z" transform="translate(-125.5 -307.16)"/><path class="f" d="M233.05,375.19s-.13-.15-.22-.23a1.1,1.1,0,0,0-.23-.1.24.24,0,0,1,.19-.08.21.21,0,0,1,.16.06v-.06a.17.17,0,0,1,.12.09.51.51,0,0,1,0,.23.28.28,0,0,1,0,.09Z" transform="translate(-125.5 -307.16)"/><path class="f" d="M233.7,375l0,.2-.48.05-.07,0v-.07l.36-.27.22.13" transform="translate(-125.5 -307.16)"/><path class="f" d="M233.06,375.11a.14.14,0,0,1,.18,0c.06.05.08.12,0,.15a.14.14,0,0,1-.18,0C233,375.22,233,375.15,233.06,375.11Z" transform="translate(-125.5 -307.16)"/><path class="f" d="M233.94,375.15a.1.1,0,0,1,0-.13c.05,0,.1,0,.13.09a.09.09,0,0,1-.05.12C234,375.25,234,375.21,233.94,375.15Z" transform="translate(-125.5 -307.16)"/><path class="f" d="M234.16,374.89l.17.15.42-.2,0-.07-.06,0-.48,0-.08.21" transform="translate(-125.5 -307.16)"/><path class="f" d="M234.64,374.19l-.23.2.29.35.08,0,.06-.06.1-.42-.3-.1" transform="translate(-125.5 -307.16)"/><path class="f" d="M235.42,374.67l-.09.19-.48,0-.06-.05,0-.07.42-.19.18.16" transform="translate(-125.5 -307.16)"/><ellipse class="f" cx="109.28" cy="67.61" rx="0.17" ry="0.14"/><path class="f" d="M235.59,374.87c0-.07,0-.12.08-.12s.09,0,.1.1a.09.09,0,0,1-.07.11S235.6,374.92,235.59,374.87Z" transform="translate(-125.5 -307.16)"/><path class="f" d="M235.9,374.65l.14.17.46-.13.05-.05-.05-.06-.46-.12-.14.19" transform="translate(-125.5 -307.16)"/><path class="f" d="M236.55,374l-.3.16.22.43.08,0,.07,0,.22-.43-.29-.16" transform="translate(-125.5 -307.16)"/><path class="f" d="M237.19,374.65l-.13.17-.46-.13,0-.05,0-.06.46-.12.13.19" transform="translate(-125.5 -307.16)"/><ellipse class="f" cx="111.05" cy="67.47" rx="0.17" ry="0.14"/><path class="f" d="M237.52,374.87c0-.07,0-.12-.08-.12s-.09,0-.1.1,0,.11.07.11S237.51,374.92,237.52,374.87Z" transform="translate(-125.5 -307.16)"/><path class="f" d="M237.69,374.67l.08.19.48,0,.06-.05,0-.07-.42-.19-.17.16" transform="translate(-125.5 -307.16)"/><path class="f" d="M238.46,374.19l.23.2-.29.35-.08,0-.06-.06-.1-.42.3-.1" transform="translate(-125.5 -307.16)"/><path class="f" d="M239,374.89l-.18.15-.41-.2,0-.07.07,0,.47,0,.09.21" transform="translate(-125.5 -307.16)"/><ellipse class="f" cx="112.82" cy="67.61" rx="0.17" ry="0.14"/><path class="f" d="M239.17,375.15a.11.11,0,0,0,0-.13s-.1,0-.13.09a.09.09,0,0,0,.05.12S239.15,375.21,239.17,375.15Z" transform="translate(-125.5 -307.16)"/><path class="f" d="M240,375.19a2.28,2.28,0,0,1,.23-.23.89.89,0,0,1,.22-.1.24.24,0,0,0-.19-.08.21.21,0,0,0-.16.06v-.06a.17.17,0,0,0-.12.09.45.45,0,0,0,0,.23.2.2,0,0,0,0,.09Z" transform="translate(-125.5 -307.16)"/><path class="f" d="M239.34,375l0,.2.48.05.07,0,0-.07-.35-.27-.22.13" transform="translate(-125.5 -307.16)"/><path class="f" d="M240,375.11s-.12,0-.18,0-.08.12,0,.15a.15.15,0,0,0,.19,0C240,375.22,240,375.15,240,375.11Z" transform="translate(-125.5 -307.16)"/><path class="k" d="M234,376.2l.1-.15.22,0-.13.17-.19-.06" transform="translate(-125.5 -307.16)"/><path class="l" d="M234.9,376.05l-.23,0a.13.13,0,0,1-.13-.08.1.1,0,0,1,.09-.11l.24,0,.24,0a.11.11,0,0,1,.13.07.12.12,0,0,1-.09.11l-.25,0" transform="translate(-125.5 -307.16)"/><ellipse class="m" cx="110.2" cy="68.73" rx="0.15" ry="0.13"/><path class="k" d="M236.56,376h-.33a.1.1,0,1,1,0-.19h.67a.1.1,0,1,1,0,.19h-.34" transform="translate(-125.5 -307.16)"/><ellipse class="m" cx="111.9" cy="68.73" rx="0.15" ry="0.13"/><path class="l" d="M238.2,376.05l.24,0a.13.13,0,0,0,.13-.08.11.11,0,0,0-.09-.11l-.24,0-.25,0c-.06,0-.12,0-.12.07a.1.1,0,0,0,.09.11l.24,0" transform="translate(-125.5 -307.16)"/><path class="k" d="M239.14,376.21l-.09-.16-.23,0,.11.18.21,0" transform="translate(-125.5 -307.16)"/><path class="e" d="M236.55,376.78a10.18,10.18,0,0,1-2.16-.2,10.71,10.71,0,0,1,4.32,0A10.18,10.18,0,0,1,236.55,376.78Z" transform="translate(-125.5 -307.16)"/><path class="n" d="M236.94,376.75v-.35m-.2.36v-.37m-.15.38v-.39" transform="translate(-125.5 -307.16)"/><path class="o" d="M236.47,376.77v-.39" transform="translate(-125.5 -307.16)"/><path class="p" d="M236.35,376.77v-.39" transform="translate(-125.5 -307.16)"/><path class="q" d="M236.24,376.77v-.39" transform="translate(-125.5 -307.16)"/><path class="q" d="M236.13,376.77v-.39" transform="translate(-125.5 -307.16)"/><path class="r" d="M236,376.77v-.39" transform="translate(-125.5 -307.16)"/><path class="s" d="M235.85,376.75v-.35m.1.36v-.37" transform="translate(-125.5 -307.16)"/><path class="t" d="M235.67,376.74v-.33m.09.34v-.35" transform="translate(-125.5 -307.16)"/><path class="u" d="M235.44,376.72v-.29m.08.29v-.3m.08.31v-.31" transform="translate(-125.5 -307.16)"/><path class="v" d="M235.36,376.72v-.28" transform="translate(-125.5 -307.16)"/><path class="w" d="M235.29,376.7v-.26" transform="translate(-125.5 -307.16)"/><path class="x" d="M235.2,376.69v-.24" transform="translate(-125.5 -307.16)"/><path class="y" d="M235,376.67v-.19m.09.2v-.21" transform="translate(-125.5 -307.16)"/><path class="y" d="M235,376.66v-.17" transform="translate(-125.5 -307.16)"/><path class="z" d="M234.87,376.64v-.14" transform="translate(-125.5 -307.16)"/><path class="aa" d="M234.79,376.63v-.11" transform="translate(-125.5 -307.16)"/><path class="ab" d="M234.7,376.62v-.09" transform="translate(-125.5 -307.16)"/><path class="ac" d="M234.61,376.6v0" transform="translate(-125.5 -307.16)"/><path class="ad" d="M241.89,409a3.15,3.15,0,0,1-1.35-.27,3.17,3.17,0,0,0-1.32-.25,3.43,3.43,0,0,0-1.33.25,3.43,3.43,0,0,1-2.69,0,3.26,3.26,0,0,0-1.29-.24,3.17,3.17,0,0,0-1.32.25,3.34,3.34,0,0,1-1.35.27v.74a3.34,3.34,0,0,0,1.35-.27,3.17,3.17,0,0,1,1.32-.25,3.3,3.3,0,0,1,1.29.24,3.14,3.14,0,0,0,1.35.28,3.3,3.3,0,0,0,1.34-.26,3.25,3.25,0,0,1,1.33-.26,3.34,3.34,0,0,1,1.32.25,3.1,3.1,0,0,0,1.34.27V409Z" transform="translate(-125.5 -307.16)"/><path class="ae" d="M241.89,409.69a3.15,3.15,0,0,1-1.35-.27,3.34,3.34,0,0,0-1.32-.25,3.25,3.25,0,0,0-1.33.26,3.3,3.3,0,0,1-1.34.26,3.14,3.14,0,0,1-1.35-.28,3.26,3.26,0,0,0-1.29-.24,3.17,3.17,0,0,0-1.32.25,3.34,3.34,0,0,1-1.35.27v.74a3.34,3.34,0,0,0,1.35-.27,3.17,3.17,0,0,1,1.32-.25,3.12,3.12,0,0,1,1.29.25,3.55,3.55,0,0,0,2.69,0,3.25,3.25,0,0,1,1.33-.26,3.16,3.16,0,0,1,1.32.26,3.26,3.26,0,0,0,1.34.26v-.74" transform="translate(-125.5 -307.16)"/><path class="ad" d="M241.89,410.43a3.31,3.31,0,0,1-1.35-.26,3.16,3.16,0,0,0-1.32-.26,3.25,3.25,0,0,0-1.33.26,3.55,3.55,0,0,1-2.69,0,3.09,3.09,0,0,0-1.29-.25,3.17,3.17,0,0,0-1.32.25,3.34,3.34,0,0,1-1.35.27v.74a3.18,3.18,0,0,0,1.35-.27,3.17,3.17,0,0,1,1.32-.25,3.29,3.29,0,0,1,1.29.25,3.55,3.55,0,0,0,2.69,0,3.25,3.25,0,0,1,1.33-.26,3.16,3.16,0,0,1,1.32.26,3.11,3.11,0,0,0,1.34.26v-.74" transform="translate(-125.5 -307.16)"/><path class="ae" d="M241.88,411.92a3.25,3.25,0,0,1-1.34-.27,3.17,3.17,0,0,0-1.32-.25,3.25,3.25,0,0,0-1.33.25,3.43,3.43,0,0,1-2.69,0,3.26,3.26,0,0,0-1.29-.24,3.17,3.17,0,0,0-1.32.25,3.34,3.34,0,0,1-1.35.27v-.74a3.17,3.17,0,0,0,1.35-.28,3.17,3.17,0,0,1,1.32-.25,3.29,3.29,0,0,1,1.29.25,3.55,3.55,0,0,0,2.69,0,3.25,3.25,0,0,1,1.33-.26,3.16,3.16,0,0,1,1.32.26,3.15,3.15,0,0,0,1.35.26v.75" transform="translate(-125.5 -307.16)"/><path class="ad" d="M241.88,412.66a3.1,3.1,0,0,1-1.34-.27,3.16,3.16,0,0,0-1.32-.26,3.25,3.25,0,0,0-1.33.26,3.43,3.43,0,0,1-2.69,0,3.26,3.26,0,0,0-1.29-.25,3.16,3.16,0,0,0-1.32.26,3.34,3.34,0,0,1-1.35.27v-.74a3.34,3.34,0,0,0,1.35-.27,3.17,3.17,0,0,1,1.32-.25,3.3,3.3,0,0,1,1.29.24,3.43,3.43,0,0,0,2.69,0,3.25,3.25,0,0,1,1.33-.25,3.17,3.17,0,0,1,1.32.25,3.3,3.3,0,0,0,1.35.27v.74Z" transform="translate(-125.5 -307.16)"/><path class="af" d="M233.56,405.9a.65.65,0,0,1,0,.19.89.89,0,0,1-1,.81h7.85a.9.9,0,0,1-1-.81.72.72,0,0,1,0-.19.41.41,0,0,1-.16,0h-5.7Z" transform="translate(-125.5 -307.16)"/><path class="ag" d="M233.7,405.44h5.7c.2,0,.35.1.35.24s-.15.24-.35.24h-5.7c-.19,0-.35-.11-.35-.24S233.51,405.44,233.7,405.44Z" transform="translate(-125.5 -307.16)"/><path class="ag" d="M232.65,408.7h7.82v-1.8h-7.82Z" transform="translate(-125.5 -307.16)"/><path class="ae" d="M233.77,405.14h5.56V380.63h-5.56Z" transform="translate(-125.5 -307.16)"/><path class="ah" d="M237.73,380.67v24.46m.63-24.46v24.46" transform="translate(-125.5 -307.16)"/><path class="ag" d="M232.76,378.69h7.62v-1.8h-7.62v1.8Z" transform="translate(-125.5 -307.16)"/><path class="af" d="M233.56,379.89a.32.32,0,0,1,.14,0h5.7a.41.41,0,0,1,.16,0,.44.44,0,0,1-.34-.41.46.46,0,0,1,.36-.41.51.51,0,0,1-.17,0H233.7l-.16,0h0a.4.4,0,0,1,.32.39.44.44,0,0,1-.33.41Z" transform="translate(-125.5 -307.16)"/><path class="ag" d="M233.7,379.86h5.7c.2,0,.35.11.35.24s-.15.25-.35.25h-5.7c-.19,0-.35-.11-.35-.25S233.51,379.86,233.7,379.86Z" transform="translate(-125.5 -307.16)"/><path class="ag" d="M233.7,378.69h5.71c.19,0,.35.09.35.2s-.16.21-.35.21H233.7c-.19,0-.35-.09-.35-.21S233.51,378.69,233.7,378.69Z" transform="translate(-125.5 -307.16)"/><path class="ai" d="M241.08,399.08c.77.4,1.3.81,1.21,1s-.28.33-.64.54c-.55.35-.88,1-.62,1.25a1.71,1.71,0,0,1-.75-1.38A1.73,1.73,0,0,1,241.08,399.08Z" transform="translate(-125.5 -307.16)"/><path class="aj" d="M228.12,389.8a19.74,19.74,0,0,1,5.63-.86,20,20,0,0,1,2.67.22c3.32.5,5.85,1.7,5.65,2.67a.24.24,0,0,1,0,.08s1.25-2.53,1.27-2.62c.22-1.08-2.59-2.41-6.27-3a20.32,20.32,0,0,0-3.27-.24,19.61,19.61,0,0,0-5.65.69v3" transform="translate(-125.5 -307.16)"/><path class="ai" d="M239.36,392.88c1.54-.1,2.59-.47,2.71-1.05s-.43-1-1.36-1.44c-.41,0-.88.09-1.36.09v2.4" transform="translate(-125.5 -307.16)"/><path class="ai" d="M233.78,391a5,5,0,0,0-2,.62l0,.05c-.17.32.68,1,2.09,1.74V391" transform="translate(-125.5 -307.16)"/><path class="aj" d="M242.81,397.61c.15-.4-1.36-1.19-3.48-1.89-1-.31-1.77-.64-2.77-1-2.95-1.18-5.12-2.53-4.86-3l0-.05a17,17,0,0,0-.4,2.54c-.27.45,1.73,1.77,4.44,2.94.87.38,2.71,1,3.57,1.26,1.56.49,3.09,1.4,2.95,1.74l.52-2.49Z" transform="translate(-125.5 -307.16)"/><path class="g" d="M182.39,388.62c.68-.22,1.13-.48.91-1-.14-.31-.49-.37-1-.2l-.93.31.84,1.85.27-.1.29-.08-.37-.81Zm-.4-.89.24-.08a.42.42,0,0,1,.51.25.36.36,0,0,1-.17.48,1.73,1.73,0,0,1-.24.1l-.34-.75" transform="translate(-125.5 -307.16)"/><path class="g" d="M184.57,387l-.3.07-.3,0,.49,1.93,1.49-.27s0-.08,0-.12a.49.49,0,0,1,0-.12c-.26.06-.55.14-.89.2l-.43-1.73" transform="translate(-125.5 -307.16)"/><path class="g" d="M187.57,388.62c.28-.7.62-1.37,1-2.05l-.18,0h-.19a15.58,15.58,0,0,1-.64,1.47c-.28-.46-.59-.92-.83-1.38l-.35,0H186c.43.63.85,1.26,1.25,1.92l.17,0h.17" transform="translate(-125.5 -307.16)"/><path class="g" d="M190.7,387.13l.16-.27a1.29,1.29,0,0,0-.61-.2c-.62-.05-1,.19-1,.52-.08.7,1.14.64,1.08,1.1,0,.2-.26.28-.51.26s-.48-.16-.51-.37h-.08a2.72,2.72,0,0,1-.16.35,1.64,1.64,0,0,0,.63.18c.62.06,1.1-.16,1.14-.53.08-.67-1.15-.7-1.1-1.09,0-.17.16-.27.48-.25a.47.47,0,0,1,.43.3h.06" transform="translate(-125.5 -307.16)"/><path class="g" d="M231.58,388.73c.21-.72.48-1.41.75-2.12l-.18,0H232a14.81,14.81,0,0,1-.48,1.52c-.33-.44-.69-.87-1-1.32l-.35.06-.35,0c.49.6,1,1.2,1.43,1.82a1,1,0,0,1,.17,0h.17" transform="translate(-125.5 -307.16)"/><path class="g" d="M233.69,386.63h-.3l-.3,0,0,2,1.53,0a.59.59,0,0,1,0-.13.5.5,0,0,1,0-.12c-.27,0-.57,0-.92,0l0-1.76" transform="translate(-125.5 -307.16)"/><path class="g" d="M236.1,387c.25,0,.48.06.72.1a.57.57,0,0,1,0-.13.53.53,0,0,1,0-.12l-2.07-.15s0,.08,0,.12a.56.56,0,0,1,0,.12c.21,0,.47,0,.76,0l-.18,1.77h.3l.3,0,.18-1.78" transform="translate(-125.5 -307.16)"/><path class="g" d="M237,388.9l.3,0,.29.07.25-.9h0c.05.13.13.28.16.37l.31.68c.12,0,.24,0,.36.06l.36.08-.11-.2c-.17-.31-.34-.62-.48-.93.38,0,.67-.11.75-.39a.42.42,0,0,0-.23-.47,2.1,2.1,0,0,0-.63-.19l-.83-.16L237,388.9m1.07-1.67c.25,0,.55.08.55.33,0,.06,0,.1,0,.14-.08.29-.32.39-.73.28l.2-.75" transform="translate(-125.5 -307.16)"/><path class="g" d="M240.9,389.49a5.42,5.42,0,0,1-.1.65l.3.13.3.16.2-2.22-.14-.06-.12-.08-2.18,1.25.17.08.16.08c.19-.14.38-.25.6-.4l.81.41Zm-.62-.51.73-.42-.08.74-.65-.32" transform="translate(-125.5 -307.16)"/><path class="k" d="M210.85,363.41a17.84,17.84,0,0,1,5.61.77,11.68,11.68,0,0,0,2.87.67,12.53,12.53,0,0,0,2.34.07,10.94,10.94,0,0,1,6.3,2.28l-.54.43-.15,1.21-1.47,1.52-.74.56-1.74,1.26-.89.06-.27.69-11.25-1.19-11.29,1.19-.27-.69-.89-.06-1.74-1.26-.73-.56-1.47-1.52-.15-1.21-.54-.43a9.9,9.9,0,0,1,2.67-1.52,10.07,10.07,0,0,1,3.63-.76,12.58,12.58,0,0,0,2.34-.07,11.68,11.68,0,0,0,2.87-.67,17.09,17.09,0,0,1,5.5-.77Z" transform="translate(-125.5 -307.16)"/><path class="ag" d="M202.54,366.08l.47.35.71-1.05a2.34,2.34,0,0,1-1.3-2,2.46,2.46,0,0,1,0-.28c.07-1.34,1.88-2.44,4.17-2.44a5.81,5.81,0,0,1,3,.76c0-.21,0-.38.07-.57a6.68,6.68,0,0,0-3.09-.7c-2.63,0-4.7,1.35-4.8,2.94a2.81,2.81,0,0,0,0,.29,2.77,2.77,0,0,0,1.11,2.15l-.37.55" transform="translate(-125.5 -307.16)"/><path class="ag" d="M202.57,366.1a2.91,2.91,0,0,1-1.46-2.34,3.15,3.15,0,0,1,1.9-2.59,2.74,2.74,0,0,0-1.2,1.92,2.81,2.81,0,0,0,0,.29,2.77,2.77,0,0,0,1.11,2.15l-.34.57" transform="translate(-125.5 -307.16)"/><path class="ag" d="M194.63,367.15a2.64,2.64,0,0,1-.81-1.88,2.54,2.54,0,0,1,.31-1.22c.72-1.35,3-2.33,5.73-2.33a10,10,0,0,1,2.09.21,3.74,3.74,0,0,0-.36.45,10.73,10.73,0,0,0-1.73-.14c-2.49,0-4.57.87-5.17,2a2.11,2.11,0,0,0-.25,1,2.26,2.26,0,0,0,.95,1.79l-.9,1.32L194,368l.62-.89Z" transform="translate(-125.5 -307.16)"/><path class="ag" d="M195.55,362.72a3.54,3.54,0,0,0-1.42,1.33,2.54,2.54,0,0,0-.31,1.22,2.64,2.64,0,0,0,.81,1.88l-.55.8a3.15,3.15,0,0,1-.83-2.06,3.79,3.79,0,0,1,2.3-3.17Z" transform="translate(-125.5 -307.16)"/><path class="ag" d="M211,359.88a1.24,1.24,0,0,1,1.24.84,8.76,8.76,0,0,1,.14,1.42.85.85,0,0,1,0,.16,1.11,1.11,0,0,0,0,.19,7.76,7.76,0,0,0,.43,2.62L211,366.7l-1.86-1.59a7.49,7.49,0,0,0,.44-2.62c0-.06,0-.12,0-.19s0-.1,0-.16a10,10,0,0,1,.14-1.42,1.29,1.29,0,0,1,1.27-.84Z" transform="translate(-125.5 -307.16)"/><path class="ag" d="M211,360.4a.64.64,0,0,1,.64.42,8,8,0,0,1,.14,1.35c0,.05,0,.1,0,.15a1.1,1.1,0,0,0,0,.18,7.16,7.16,0,0,0,.41,2.48L211,366l-1.21-1a7.4,7.4,0,0,0,.41-2.48c0-.06,0-.12,0-.18s0-.1,0-.15a8,8,0,0,1,.14-1.35A.65.65,0,0,1,211,360.4Z" transform="translate(-125.5 -307.16)"/><path class="ag" d="M219.41,366.08l-.48.35-.71-1.05a2.34,2.34,0,0,0,1.31-2,2.46,2.46,0,0,0,0-.28c-.08-1.34-1.88-2.44-4.18-2.44a5.84,5.84,0,0,0-3,.76c0-.21,0-.38-.07-.57a6.68,6.68,0,0,1,3.09-.7c2.64,0,4.7,1.35,4.8,2.94a2.83,2.83,0,0,1,0,.29,2.78,2.78,0,0,1-1.12,2.15l.38.55" transform="translate(-125.5 -307.16)"/><path class="ag" d="M219.38,366.1a2.91,2.91,0,0,0,1.46-2.34,3.14,3.14,0,0,0-1.91-2.59,2.68,2.68,0,0,1,1.2,1.92,2.83,2.83,0,0,1,0,.29,2.78,2.78,0,0,1-1.12,2.15l.35.57" transform="translate(-125.5 -307.16)"/><path class="ag" d="M227.32,367.15a2.68,2.68,0,0,0,.81-1.88,2.54,2.54,0,0,0-.31-1.22c-.73-1.35-3-2.33-5.73-2.33a10,10,0,0,0-2.1.21,3.84,3.84,0,0,1,.37.45,10.54,10.54,0,0,1,1.73-.14c2.49,0,4.56.87,5.17,2a2.11,2.11,0,0,1,.25,1,2.27,2.27,0,0,1-1,1.79l.9,1.32.49-.34Z" transform="translate(-125.5 -307.16)"/><path class="ag" d="M226.4,362.72a3.54,3.54,0,0,1,1.42,1.33,2.54,2.54,0,0,1,.31,1.22,2.68,2.68,0,0,1-.81,1.88l.54.8a3.1,3.1,0,0,0,.83-2.06,3.78,3.78,0,0,0-2.29-3.17Z" transform="translate(-125.5 -307.16)"/><ellipse class="ao" cx="85.48" cy="51.5" rx="1.51" ry="1.29"/><path class="f" d="M210.59,355v.7h-.83v.7h.83v2h-1.05c0,.06-.07.11-.07.18a1.06,1.06,0,0,0,.12.5h2.79a1.06,1.06,0,0,0,.12-.5c0-.07-.06-.12-.07-.18h-1v-2h.82v-.7h-.82V355Z" transform="translate(-125.5 -307.16)"/><ellipse class="ap" cx="85.48" cy="58.16" rx="0.65" ry="0.55"/><ellipse class="ap" cx="85.48" cy="57.07" rx="0.65" ry="0.55"/><ellipse class="ap" cx="85.48" cy="55.9" rx="0.52" ry="0.44"/><ellipse class="ap" cx="85.48" cy="54.84" rx="0.38" ry="0.32"/><ellipse class="ap" cx="85.48" cy="53.92" rx="0.3" ry="0.26"/><ellipse class="ap" cx="68.01" cy="61.15" rx="0.38" ry="0.32"/><ellipse class="ap" cx="67.5" cy="60.34" rx="0.38" ry="0.32"/><ellipse class="ap" cx="67.15" cy="59.39" rx="0.38" ry="0.32"/><ellipse class="ap" cx="67.11" cy="58.37" rx="0.38" ry="0.32"/><ellipse class="ap" cx="67.39" cy="57.37" rx="0.38" ry="0.32"/><ellipse class="ap" cx="67.96" cy="56.47" rx="0.38" ry="0.32"/><ellipse class="ap" cx="68.73" cy="55.72" rx="0.38" ry="0.32"/><ellipse class="ap" cx="69.63" cy="55.1" rx="0.38" ry="0.32"/><ellipse class="ap" cx="70.7" cy="54.59" rx="0.38" ry="0.32"/><ellipse class="ap" cx="71.8" cy="54.23" rx="0.38" ry="0.32"/><ellipse class="ap" cx="73.04" cy="54.03" rx="0.38" ry="0.32"/><ellipse class="ap" cx="74.22" cy="53.98" rx="0.38" ry="0.32"/><ellipse class="ap" cx="75.37" cy="54.01" rx="0.38" ry="0.32"/><ellipse class="ap" cx="76.65" cy="58.58" rx="0.38" ry="0.32"/><ellipse class="ap" cx="76.01" cy="57.76" rx="0.38" ry="0.32"/><ellipse class="ap" cx="75.67" cy="56.87" rx="0.38" ry="0.32"/><ellipse class="ap" cx="75.71" cy="55.89" rx="0.38" ry="0.32"/><ellipse class="ap" cx="75.95" cy="54.9" rx="0.38" ry="0.32"/><ellipse class="ap" cx="76.52" cy="54.01" rx="0.38" ry="0.32"/><ellipse class="ap" cx="77.4" cy="53.4" rx="0.38" ry="0.32"/><ellipse class="ap" cx="78.42" cy="52.88" rx="0.38" ry="0.32"/><ellipse class="ap" cx="79.55" cy="52.58" rx="0.38" ry="0.32"/><ellipse class="ap" cx="80.72" cy="52.4" rx="0.38" ry="0.32"/><ellipse class="ap" cx="81.87" cy="52.41" rx="0.38" ry="0.32"/><ellipse class="ap" cx="83.07" cy="52.59" rx="0.38" ry="0.32"/><ellipse class="ap" cx="84.18" cy="52.94" rx="0.38" ry="0.32"/><ellipse class="ap" cx="86.76" cy="52.94" rx="0.38" ry="0.32"/><ellipse class="ap" cx="87.87" cy="52.59" rx="0.38" ry="0.32"/><ellipse class="ap" cx="89.07" cy="52.41" rx="0.38" ry="0.32"/><ellipse class="ap" cx="90.22" cy="52.4" rx="0.38" ry="0.32"/><ellipse class="ap" cx="91.39" cy="52.58" rx="0.38" ry="0.32"/><ellipse class="ap" cx="92.52" cy="52.88" rx="0.38" ry="0.32"/><ellipse class="ap" cx="93.55" cy="53.4" rx="0.38" ry="0.32"/><ellipse class="ap" cx="94.42" cy="54.01" rx="0.38" ry="0.32"/><ellipse class="ap" cx="94.99" cy="54.9" rx="0.38" ry="0.32"/><ellipse class="ap" cx="95.23" cy="55.89" rx="0.38" ry="0.32"/><ellipse class="ap" cx="95.27" cy="56.87" rx="0.38" ry="0.32"/><ellipse class="ap" cx="94.93" cy="57.76" rx="0.38" ry="0.32"/><ellipse class="ap" cx="94.29" cy="58.58" rx="0.38" ry="0.32"/><ellipse class="ap" cx="95.57" cy="54.01" rx="0.38" ry="0.32"/><ellipse class="ap" cx="96.72" cy="53.98" rx="0.38" ry="0.32"/><ellipse class="ap" cx="97.9" cy="54.03" rx="0.38" ry="0.32"/><ellipse class="ap" cx="99.14" cy="54.23" rx="0.38" ry="0.32"/><ellipse class="ap" cx="100.25" cy="54.59" rx="0.38" ry="0.32"/><ellipse class="ap" cx="101.31" cy="55.1" rx="0.38" ry="0.32"/><ellipse class="ap" cx="102.2" cy="55.72" rx="0.38" ry="0.32"/><ellipse class="ap" cx="102.97" cy="56.47" rx="0.38" ry="0.32"/><ellipse class="ap" cx="103.55" cy="57.37" rx="0.38" ry="0.32"/><ellipse class="ap" cx="103.83" cy="58.37" rx="0.38" ry="0.32"/><ellipse class="ap" cx="103.79" cy="59.39" rx="0.38" ry="0.32"/><ellipse class="ap" cx="103.45" cy="60.34" rx="0.38" ry="0.32"/><ellipse class="ap" cx="102.93" cy="61.15" rx="0.38" ry="0.32"/><path class="ag" d="M211,376.78a42.49,42.49,0,0,1-10.63-1.18.36.36,0,0,1-.29-.38.37.37,0,0,1,.29-.36,48.47,48.47,0,0,1,21.26,0,.37.37,0,0,1,.28.36.36.36,0,0,1-.28.38A42.49,42.49,0,0,1,211,376.78" transform="translate(-125.5 -307.16)"/><path class="ag" d="M211,373.68a42.33,42.33,0,0,0-10.73,1.23c.22-.1.2-.35-.08-1s-.85-.74-.85-.74a53.66,53.66,0,0,1,23.39,0s-.52,0-.86.74-.29.89-.07,1a42.93,42.93,0,0,0-10.8-1.23" transform="translate(-125.5 -307.16)"/><path class="ag" d="M211,371.9a47.52,47.52,0,0,0-11.68,1.28.38.38,0,0,1-.47-.18.32.32,0,0,1,.24-.42,53.3,53.3,0,0,1,23.84,0,.33.33,0,0,1,.24.42.39.39,0,0,1-.47.18A47.76,47.76,0,0,0,211,371.9" transform="translate(-125.5 -307.16)"/><path class="ag" d="M211,368.66l.42.06a1.44,1.44,0,0,0-.08.51,1.58,1.58,0,0,0,1.68,1.43,1.67,1.67,0,0,0,1.6-1s.16-.52.23-.51.05.55.08.54a1.72,1.72,0,0,0,3.34-.22,1,1,0,0,0,0-.17l.53-.47.28.6a1.19,1.19,0,0,0-.16.62,1.5,1.5,0,0,0,1.6,1.37,1.69,1.69,0,0,0,1.34-.61l.34-.38v.47a.9.9,0,0,0,.74,1,2.42,2.42,0,0,0,1.38-.53,8.51,8.51,0,0,0,1.21-1l.07.55a4.89,4.89,0,0,1-1.36,1.28,2.66,2.66,0,0,1-1.44.35,1.37,1.37,0,0,1-1-.84,2.67,2.67,0,0,1-1.21.29,2.36,2.36,0,0,1-2.17-1.18,2.49,2.49,0,0,1-1.77.69,2.6,2.6,0,0,1-1.91-.79,2.6,2.6,0,0,1-1.67.58,2.57,2.57,0,0,1-2-.94,2.54,2.54,0,0,1-2,.94,2.59,2.59,0,0,1-1.66-.58,2.6,2.6,0,0,1-1.91.79,2.49,2.49,0,0,1-1.77-.69,2.37,2.37,0,0,1-2.16,1.18,2.68,2.68,0,0,1-1.22-.29,1.35,1.35,0,0,1-1,.84,2.68,2.68,0,0,1-1.44-.35,4.89,4.89,0,0,1-1.36-1.28l.07-.55a8.51,8.51,0,0,0,1.21,1,2.42,2.42,0,0,0,1.38.53.9.9,0,0,0,.74-1v-.47l.34.38a1.69,1.69,0,0,0,1.33.61,1.5,1.5,0,0,0,1.61-1.37,1.19,1.19,0,0,0-.16-.62l.28-.6.53.47a1,1,0,0,0,0,.17,1.57,1.57,0,0,0,1.67,1.43,1.59,1.59,0,0,0,1.67-1.21s0-.53.08-.54.2.53.23.51a1.68,1.68,0,0,0,1.6,1,1.58,1.58,0,0,0,1.68-1.43,1.1,1.1,0,0,0-.09-.51l.44-.06" transform="translate(-125.5 -307.16)"/><path class="ag" d="M196.73,370.67a.72.72,0,0,0-.24-.33.66.66,0,0,0-.81-.07l-.06.07a2.53,2.53,0,0,0-.82-.85,2.8,2.8,0,0,0-1.19-.16,1,1,0,0,1,1-.89,1.12,1.12,0,0,1,.85.34l.08-.33a1,1,0,0,1,.67.56,2,2,0,0,1,0,1.17,2.16,2.16,0,0,1,.29-.49,3,3,0,0,1,.85-.52,3.34,3.34,0,0,0,.47-.24s0,.06,0,.19a1.61,1.61,0,0,1,0,.25,3.17,3.17,0,0,1,1.3.15,1.63,1.63,0,0,1-.89.71s.15.11.28.23l.15.15-.43.06a5.56,5.56,0,0,1-.92.07c-.21,0-.45-.05-.6-.07" transform="translate(-125.5 -307.16)"/><path class="ai" d="M195.68,370.27a.66.66,0,0,1,.81.07c.27.21.35.51.17.68a.66.66,0,0,1-.8-.08c-.27-.21-.35-.51-.18-.67" transform="translate(-125.5 -307.16)"/><path class="ap" d="M199.48,370.54a.4.4,0,0,1,.19-.56.5.5,0,0,1,.55.36c.09.25,0,.51-.2.56a.49.49,0,0,1-.54-.36" transform="translate(-125.5 -307.16)"/><path class="ag" d="M202.8,369.3a.61.61,0,0,1-.23-.34.54.54,0,0,1,.08-.37,3.93,3.93,0,0,0-.62-.22,5.3,5.3,0,0,0-.81-.06h-.4l.1.17a2,2,0,0,0,.17.23,1.85,1.85,0,0,0-1,.65,2.05,2.05,0,0,0,1.23.3,1.15,1.15,0,0,0-.06.26,1.42,1.42,0,0,0,0,.19l.36-.12a4.24,4.24,0,0,0,.74-.3,3.16,3.16,0,0,0,.5-.38" transform="translate(-125.5 -307.16)"/><path class="ag" d="M202.65,366.15a1.73,1.73,0,0,1,.79.94s0-.08.24-.18a.75.75,0,0,1,.37-.1s-.05.3-.08.4,0,.43-.11.72a2.34,2.34,0,0,1-.22.51.74.74,0,0,0-.54-.12.63.63,0,0,0-.45.28,2.85,2.85,0,0,1-.41-.43c-.19-.25-.32-.55-.39-.64s-.24-.35-.24-.35a.81.81,0,0,1,.39,0,.77.77,0,0,1,.3.1,1.46,1.46,0,0,1,.35-1.11" transform="translate(-125.5 -307.16)"/><path class="ag" d="M203.78,369.15a.5.5,0,0,0,.08-.38.55.55,0,0,0-.23-.33,3.36,3.36,0,0,1,.51-.39,4.55,4.55,0,0,1,.73-.29l.37-.12a1.61,1.61,0,0,1,0,.19,1.53,1.53,0,0,1-.07.26,2,2,0,0,1,1.23.31,1.82,1.82,0,0,1-1,.64,1.44,1.44,0,0,1,.17.22.88.88,0,0,1,.1.18h-.39a5.22,5.22,0,0,1-.81-.06,3.83,3.83,0,0,1-.63-.22" transform="translate(-125.5 -307.16)"/><ellipse class="ai" cx="77.73" cy="61.7" rx="0.74" ry="0.63"/><path class="ap" d="M206.78,369.27a.42.42,0,0,1,.32-.52.46.46,0,0,1,.46.44.42.42,0,0,1-.32.52.47.47,0,0,1-.46-.44" transform="translate(-125.5 -307.16)"/><path class="ag" d="M210.45,368.67a.58.58,0,0,1-.18-.41.55.55,0,0,1,.18-.4,4.14,4.14,0,0,0-.65-.35,4.32,4.32,0,0,0-.89-.2l-.44-.08.07.21a2,2,0,0,0,.14.28.76.76,0,1,0,0,1.08,2.6,2.6,0,0,0-.14.29l-.07.21.44-.08a4.32,4.32,0,0,0,.89-.2,4.61,4.61,0,0,0,.65-.34" transform="translate(-125.5 -307.16)"/><path class="ag" d="M211,365.14a1.75,1.75,0,0,1,.67,1.18.68.68,0,0,1,.31-.17.94.94,0,0,1,.44,0s-.13.32-.19.43a8.08,8.08,0,0,1-.29.78,2.53,2.53,0,0,1-.36.54.78.78,0,0,0-.57-.23.8.8,0,0,0-.57.23,2.53,2.53,0,0,1-.36-.54c-.15-.31-.22-.66-.28-.78s-.19-.43-.19-.43a.9.9,0,0,1,.43,0,.69.69,0,0,1,.32.17,1.75,1.75,0,0,1,.64-1.18" transform="translate(-125.5 -307.16)"/><path class="ag" d="M211.57,368.67a.58.58,0,0,0,.18-.41.55.55,0,0,0-.18-.4,4.14,4.14,0,0,1,.65-.35,4.46,4.46,0,0,1,.89-.2l.43-.08a.68.68,0,0,1-.06.21,2,2,0,0,1-.14.28,2.14,2.14,0,0,1,1.3.55,2.1,2.1,0,0,1-1.3.53,2.6,2.6,0,0,1,.14.29,1.23,1.23,0,0,1,.06.21l-.43-.08a4.46,4.46,0,0,1-.89-.2,4.61,4.61,0,0,1-.65-.34" transform="translate(-125.5 -307.16)"/><ellipse class="ai" cx="85.51" cy="61.1" rx="0.74" ry="0.63"/><path class="ap" d="M215.27,369.27a.43.43,0,0,0-.32-.52.46.46,0,0,0-.46.44.43.43,0,0,0,.32.52.47.47,0,0,0,.46-.44" transform="translate(-125.5 -307.16)"/><path class="ag" d="M218.27,369.15a.5.5,0,0,1,.15-.71,3.6,3.6,0,0,0-.5-.39,5,5,0,0,0-.74-.29l-.36-.12a.56.56,0,0,0,0,.19,1.15,1.15,0,0,0,.06.26,2,2,0,0,0-1.23.31,1.86,1.86,0,0,0,1,.64,1.44,1.44,0,0,0-.17.22.88.88,0,0,0-.1.18h.39a5.22,5.22,0,0,0,.81-.06,3.83,3.83,0,0,0,.63-.22" transform="translate(-125.5 -307.16)"/><path class="ag" d="M219.4,366.15a1.73,1.73,0,0,0-.79.94s0-.08-.24-.18a.78.78,0,0,0-.38-.1s.06.3.09.4,0,.43.11.72a2.34,2.34,0,0,0,.22.51.74.74,0,0,1,.53-.12.62.62,0,0,1,.46.28,2.38,2.38,0,0,0,.41-.43c.19-.25.32-.55.39-.64s.24-.35.24-.35a.81.81,0,0,0-.39,0,.68.68,0,0,0-.3.1,1.46,1.46,0,0,0-.35-1.11" transform="translate(-125.5 -307.16)"/><path class="ag" d="M219.25,369.3a.55.55,0,0,0,.22-.34.44.44,0,0,0-.07-.37,3.83,3.83,0,0,1,.63-.22,5.19,5.19,0,0,1,.8-.06h.4l-.1.17a2,2,0,0,1-.17.23,1.85,1.85,0,0,1,1,.65,2.05,2.05,0,0,1-1.23.3s0,.1.06.26a1.42,1.42,0,0,1,0,.19l-.36-.12a4.24,4.24,0,0,1-.74-.3,3.16,3.16,0,0,1-.5-.38" transform="translate(-125.5 -307.16)"/><ellipse class="ai" cx="93.32" cy="61.7" rx="0.74" ry="0.63"/><path class="ap" d="M222.58,370.54a.4.4,0,0,0-.2-.56.5.5,0,0,0-.55.36.39.39,0,0,0,.2.56.5.5,0,0,0,.55-.36" transform="translate(-125.5 -307.16)"/><path class="ag" d="M225.31,370.67a.83.83,0,0,1,.25-.33.66.66,0,0,1,.81-.07l.06.07a2.42,2.42,0,0,1,.82-.85,2.84,2.84,0,0,1,1.2-.16,1,1,0,0,0-1-.89,1.08,1.08,0,0,0-.84.34l-.08-.33a1,1,0,0,0-.68.56,2,2,0,0,0,0,1.17,2.16,2.16,0,0,0-.29-.49,2.86,2.86,0,0,0-.85-.52,3.34,3.34,0,0,1-.47-.24s0,.06,0,.19a1,1,0,0,0,0,.25,3.17,3.17,0,0,0-1.31.15,1.63,1.63,0,0,0,.89.71s-.15.11-.28.23l-.15.15.43.06a5.56,5.56,0,0,0,.92.07c.21,0,.45-.05.59-.07" transform="translate(-125.5 -307.16)"/><path class="ai" d="M226.37,370.27a.66.66,0,0,0-.81.07c-.27.21-.35.51-.17.68a.66.66,0,0,0,.8-.08c.27-.21.35-.51.18-.67" transform="translate(-125.5 -307.16)"/><path class="aj" d="M211,376.29a45,45,0,0,1-9.81-1,49.64,49.64,0,0,1,19.63,0,45.08,45.08,0,0,1-9.82,1Z" transform="translate(-125.5 -307.16)"/><path class="r" d="M213.71,376.2v-1.85m-1,1.91,0-2m-.77,2v-2" transform="translate(-125.5 -307.16)"/><path class="v" d="M211.29,376.31v-2" transform="translate(-125.5 -307.16)"/><path class="aa" d="M210.68,376.31v-2" transform="translate(-125.5 -307.16)"/><path class="ac" d="M210.1,376.31v-2" transform="translate(-125.5 -307.16)"/><path class="aq" d="M209.53,376.31v-2" transform="translate(-125.5 -307.16)"/><path class="ar" d="M209,376.31v-2" transform="translate(-125.5 -307.16)"/><path class="as" d="M208.05,376.2v-1.84m.47,1.86V374.3" transform="translate(-125.5 -307.16)"/><path class="at" d="M207.16,376.12v-1.7m.45,1.74v-1.8" transform="translate(-125.5 -307.16)"/><path class="au" d="M206,376v-1.49m.39,1.51v-1.56m.41,1.61v-1.62" transform="translate(-125.5 -307.16)"/><path class="av" d="M205.54,376v-1.44" transform="translate(-125.5 -307.16)"/><path class="aw" d="M205.14,375.93v-1.34" transform="translate(-125.5 -307.16)"/><path class="ax" d="M204.72,375.9v-1.25" transform="translate(-125.5 -307.16)"/><path class="ay" d="M203.86,375.79v-1m.45,1v-1.12" transform="translate(-125.5 -307.16)"/><path class="az" d="M203.42,375.71v-.88" transform="translate(-125.5 -307.16)"/><path class="ba" d="M203,375.64v-.73" transform="translate(-125.5 -307.16)"/><path class="bb" d="M202.57,375.54V375" transform="translate(-125.5 -307.16)"/><path class="bc" d="M202.12,375.49v-.42" transform="translate(-125.5 -307.16)"/><path class="bd" d="M201.64,375.39v-.2" transform="translate(-125.5 -307.16)"/><path class="ah" d="M200.75,375.39a48.88,48.88,0,0,1,20.53,0" transform="translate(-125.5 -307.16)"/><path class="ai" d="M199.59,374l.42-.49,1.15.13-.92.6-.65-.24" transform="translate(-125.5 -307.16)"/><path class="ap" d="M202.09,373.43a.38.38,0,0,1,.75,0,.38.38,0,0,1-.75,0" transform="translate(-125.5 -307.16)"/><path class="be" d="M205.37,373.36l-.8.09a.38.38,0,0,1-.43-.28.32.32,0,0,1,.33-.35l.81-.09.83-.09a.37.37,0,0,1,.42.28.34.34,0,0,1-.33.36l-.83.08" transform="translate(-125.5 -307.16)"/><path class="ap" d="M207.73,372.83a.38.38,0,0,1,.75,0,.38.38,0,0,1-.75,0" transform="translate(-125.5 -307.16)"/><path class="ai" d="M211,373.08h-1.13a.36.36,0,0,1-.38-.31.35.35,0,0,1,.38-.32h2.27a.35.35,0,0,1,.38.32.36.36,0,0,1-.38.31H211" transform="translate(-125.5 -307.16)"/><path class="ap" d="M213.55,372.83a.36.36,0,0,1,.38-.32.35.35,0,0,1,.37.32.34.34,0,0,1-.37.32.35.35,0,0,1-.38-.32" transform="translate(-125.5 -307.16)"/><path class="be" d="M216.66,373.36l.81.09a.37.37,0,0,0,.42-.28.32.32,0,0,0-.33-.35l-.81-.09-.82-.09a.36.36,0,0,0-.42.28.33.33,0,0,0,.33.36l.82.08" transform="translate(-125.5 -307.16)"/><path class="ap" d="M219.19,373.43a.39.39,0,0,1,.76,0,.39.39,0,0,1-.76,0" transform="translate(-125.5 -307.16)"/><path class="ai" d="M222.44,374l-.41-.49-1.15.13.92.6.64-.24" transform="translate(-125.5 -307.16)"/><path class="bf" d="M211.13,413.15a31.73,31.73,0,0,1-12.63-2.63,7.26,7.26,0,0,1-4.57-6.52V393.75h34.33V404a7.24,7.24,0,0,1-4.56,6.52,31.4,31.4,0,0,1-12.57,2.63Z" transform="translate(-125.5 -307.16)"/><path class="bg" d="M212,408.6a1.3,1.3,0,0,1,1.08,1.24c0,.73-.79,1.28-1.81,1.28s-1.86-.55-1.86-1.28a1.16,1.16,0,0,1,1.06-1.22.57.57,0,0,0-.09-.15l-.21-.2a1.1,1.1,0,0,1,.42,0,.23.23,0,0,0,.44-.09,1.07,1.07,0,0,1,.24-.16,1.13,1.13,0,0,1,.21.2,1.33,1.33,0,0,1,.09.18,1,1,0,0,1,.27-.15,1.67,1.67,0,0,1,.28-.08s0,.14-.07.21a1.16,1.16,0,0,0,0,.22" transform="translate(-125.5 -307.16)"/><path class="bh" d="M211.08,411.92a9.86,9.86,0,0,0-2-.94,11.53,11.53,0,0,0-2-.05s.44.29.63.46A3.56,3.56,0,0,0,209,412a4.61,4.61,0,0,0,2.12-.06" transform="translate(-125.5 -307.16)"/><path class="bh" d="M211.47,412a3.74,3.74,0,0,1,1.78-.93,5.55,5.55,0,0,1,2.2.18s-.35.15-.54.27a2.56,2.56,0,0,1-1.41.49c-.75,0-1.57-.07-1.7-.06l-.33.05" transform="translate(-125.5 -307.16)"/><path class="bi" d="M211.2,411a1.46,1.46,0,0,1,0-2.29,1.55,1.55,0,0,1,.55,1.15,1.5,1.5,0,0,1-.56,1.14" transform="translate(-125.5 -307.16)"/><path class="bh" d="M210.86,412.65a2.93,2.93,0,0,0,.23-.87,2.66,2.66,0,0,0-.06-.67h.28a2.35,2.35,0,0,1,.13.67,6.34,6.34,0,0,1-.06.73,1.19,1.19,0,0,0-.25.05l-.27.09" transform="translate(-125.5 -307.16)"/><path class="bi" d="M211.08,404c0,4.05-3.82,7.33-8.57,7.33s-8.6-3.28-8.6-7.33V393.72h17.17V404" transform="translate(-125.5 -307.16)"/><path class="bj" d="M193.88,403.85a7.38,7.38,0,0,0,2,4.82V393.45h-1.93l0,10.4Z" transform="translate(-125.5 -307.16)"/><path class="bj" d="M197.66,410a9.26,9.26,0,0,0,2.06.85l-.05-17.53h-2Z" transform="translate(-125.5 -307.16)"/><path class="bj" d="M201.49,411.28a10.35,10.35,0,0,0,2,0V393.36h-2Z" transform="translate(-125.5 -307.16)"/><path class="bj" d="M205.26,410.89a7.12,7.12,0,0,0,2.07-.81V393.36h-2l-.06,17.53Z" transform="translate(-125.5 -307.16)"/><path class="bj" d="M209.19,408.51a6.7,6.7,0,0,0,1.91-3.93l.05-11.22h-2Z" transform="translate(-125.5 -307.16)"/><path class="bi" d="M228.28,393.72V404c0,4.05-3.86,7.33-8.6,7.33s-8.6-3.28-8.6-7.33V393.72h17.2" transform="translate(-125.5 -307.16)"/><path class="bk" d="M218.73,401.4l.06-.13-1.45-1.46-.57.22-1.05-1,.34-.45-1.82-1.84h-.09V398l.59.15v1.37l-.59.15v1.26a.87.87,0,0,1,.59.51h1.1l.17-.52h1.62l.17.52Zm-2.39-5.7v.5h.95v-.5ZM213.85,402a.34.34,0,1,0,0-.68.34.34,0,1,0,0,.68Zm5.46-3-.6-.15v-1.37l.6-.16v-.59a.88.88,0,0,1-.61-.51h-.92l-.17.51H216l-.18-.51h-1a1,1,0,0,1-.1.18l1.84,1.84.57-.22,1,1.05-.34.44,1.43,1.43.1,0Zm-2.47-.43-.45.32.61.61.44-.33Zm2.73,11.14a.91.91,0,0,1-.86-.62,6.9,6.9,0,0,1-1.61-.4l.28-.44a6.37,6.37,0,0,0,1.4.34.82.82,0,0,1,.54-.43v-1.73l-.6-.15v-1.38l.6-.14v-2.36l-.07,0-1.36,1.36.34.44-1,1-.57-.22-1.13,1.13a.68.68,0,0,1,0,.87,5.19,5.19,0,0,0,1.11.85l-.29.44a5.74,5.74,0,0,1-1.29-1,1,1,0,0,1-.89-.15A.71.71,0,0,1,214,406l.05,0a4.8,4.8,0,0,1-.45-1.54h.59a3.71,3.71,0,0,0,.37,1.32,1.06,1.06,0,0,1,.5.05l1.13-1.14-.34-.44,1-1.05.57.22,1.36-1.36a.61.61,0,0,1-.07-.14h-.94l-.17.51H216l-.17-.51h-1.11a.89.89,0,0,1-.58.5v1.24h-.59v-1.24a.77.77,0,0,1,0-1.52v-1.25l-.6-.15V398.1l.6-.15V396.7a.81.81,0,0,1-.63-.75.88.88,0,0,1,.94-.8,1,1,0,0,1,.89.55h1l.18-.51h1.61l.17.51h.92a.92.92,0,0,1,.87-.55l0,2.58h-.29v.8h.29v6.65h-.27v.8h.27Zm-2-5.64-.44-.32-.61.61.44.32Zm-3.4-5.67h-.58v.8h.59Zm3.13,3.51v-.49h-1v.49Zm-3.63,3-.6-.12-.08-1.37.59-.18V404a5.15,5.15,0,0,0,.09.88Zm.5-1.7.6.13s0,.88,0,.68l.06.69-.6.18a4.11,4.11,0,0,1-.08-.86Zm3.7,5.21.13-.52a5.09,5.09,0,0,1-1.42-.64l-.44.34a6,6,0,0,0,1.73.82Zm-.29.45-.45.37a7,7,0,0,1-1.41-.65l.13-.54a7.07,7.07,0,0,0,1.73.82Z" transform="translate(-125.5 -307.16)"/><path class="bk" d="M220.44,401.4a.52.52,0,0,0-.06-.13l1.45-1.46.57.22,1-1-.34-.45,1.82-1.84h.1V398l-.6.15v1.37l.6.15v1.26a.87.87,0,0,0-.6.51h-1.1l-.17-.52h-1.61l-.17.52Zm2.39-5.7v.5h-1v-.5Zm2.49,6.27a.34.34,0,1,1,.4-.34A.37.37,0,0,1,225.32,402Zm-5.46-3,.6-.15v-1.37l-.6-.16v-.59a.88.88,0,0,0,.61-.51h.92l.17.51h1.61l.18-.51h1.05a1,1,0,0,0,.1.18l-1.84,1.84-.57-.22-1,1.05.34.44L220,400.92l-.1,0Zm2.48-.43.44.32-.61.61-.44-.33Zm-2.74,11.14a.91.91,0,0,0,.86-.62,7.11,7.11,0,0,0,1.62-.4l-.29-.44a6.37,6.37,0,0,1-1.4.34.82.82,0,0,0-.54-.43v-1.73l.6-.15v-1.38l-.6-.14v-2.36l.07,0,1.36,1.36-.34.44,1,1,.57-.22,1.13,1.13a.69.69,0,0,0,0,.87,5,5,0,0,1-1.11.85l.29.44a5.8,5.8,0,0,0,1.3-1,1,1,0,0,0,.88-.15.71.71,0,0,0,.11-1.12l-.05,0a4.34,4.34,0,0,0,.45-1.54H225a3.94,3.94,0,0,1-.38,1.32,1.07,1.07,0,0,0-.5.05L223,404.66l.34-.44-1-1.05-.58.22L220.36,402a.61.61,0,0,0,.07-.14h.95l.17.51h1.61l.17-.51h1.11a.89.89,0,0,0,.58.5v1.24h.59v-1.24a.77.77,0,0,0,0-1.52v-1.25l.6-.15V398.1l-.6-.15V396.7a.81.81,0,0,0,.63-.75.88.88,0,0,0-.93-.8,1,1,0,0,0-.9.55h-1.05l-.18-.51h-1.61l-.17.51h-.92a.92.92,0,0,0-.87-.55l0,2.58h.29v.8h-.28v6.65h.27v.8h-.27Zm2-5.64.44-.32.61.61-.44.32Zm3.41-5.67h.57v.8H225Zm-3.13,3.51v-.49h1v.49Zm3.62,3,.6-.12.09-1.37-.6-.18V404a4.31,4.31,0,0,1-.09.88Zm-.5-1.7-.6.13s0,.88,0,.68l-.06.69.6.18A4.11,4.11,0,0,0,225,404Zm-3.7,5.21-.13-.52a5.29,5.29,0,0,0,1.43-.64l.43.34a5.87,5.87,0,0,1-1.73.82Zm.29.45.45.37a6.71,6.71,0,0,0,1.41-.65l-.13-.54a7.07,7.07,0,0,1-1.73.82Z" transform="translate(-125.5 -307.16)"/><path class="bl" d="M218.69,401.64a.95.95,0,1,1,.94.8.88.88,0,0,1-.94-.8" transform="translate(-125.5 -307.16)"/><path class="bi" d="M193.91,393.73h17.16V376.58H193.91Z" transform="translate(-125.5 -307.16)"/><path class="bm" d="M199.8,380.55h-.31v-.29h-.56v1.14h.56v.79H198.3v2.27h.63V389h-1.26v2.35h9.71V389h-1.26v-4.55h.63v-2.27h-1.18v-.79h.55v-1.14h-.55v.29h-.32v-.29h-.55v.29h-.4v-.29h-.55v1.14h.55v.79h-1.18V379.7h.63v-1.14h-.63v.28h-.32v-.28h-.55v.28h-.32v-.28h-.63v1.14h.63v2.49h-1.18v-.79h.55v-1.14h-.55v.29h-.32v-.29h-.63v.29Zm-2.13,10.81h9.71m-9.71-.57h9.71m-9.71-.57h9.71m-9.71-.57h9.71m-9.71-.64h9.71m-8.45-.5h7.19m-7.19-.57h7.19m-7.19-.64h7.19m-7.19-.56h7.19m-7.19-.57h7.19m-7.19-.57h7.19m-7.19-.57h7.19m-7.82-.57h8.45m-8.45-.57h8.45m-8.45-.57h8.45m-8.45-.57h8.45m-7.26-.56h6.08m-3.64-.57h1.19m-1.19-.57h1.19m-1.19-.57h1.19m-1.19-.57h1.19m-1.82-.71h2.45m-4.26,2.42h1.26m-1.82-.72h2.37m-2.37,10.46v-.57m0-.57v-.57m-.63.57v.57m1.19,0v-.57m.63,1.14v-.57m0-.57v-.57m0-.64v-.5m0-.57v-.64m-.63,2.35V389m-1.19.64V389m2.45,0v.64m.55-.64v-.5m-1.81-.57v.57m1.26-.57v.57m1.18-.57v.57m-.63-.57v-.64m.63-.56v.56m0-1.7v.57M201.3,385v.57m.63-1.14V385m-1.18-.57V385m-1.26-.57V385m-.56-1.14v.57m1.19-.57v.57m1.18-.57v.57m.63-1.14v.57m-1.18-.57v.57m-1.26-.57v.57m-.56-1.14v.57m2.37-.57v.57m-1.18-1.7v.57m5.45-.57H204.3m1.82-.72h-2.37m2.37,10.46v-.57m0-.57v-.57m.63.57v.57m-1.18,0v-.57m-.63,1.14v-.57m0-.57v-.57m0-.64v-.5m0-.57v-.64m.63,2.35V389m1.18.64V389m-2.45,0v.64m-.55-.64v-.5m1.82-.57v.57m-1.27-.57v.57m-1.18-.57v.57m.63-.57v-.64m-.63-.56v.56m0-1.7v.57m.63-1.14v.57m-.63-1.14V385m1.18-.57V385m1.27-.57V385m.55-1.14v.57m-1.18-.57v.57m-1.19-.57v.57m-.63-1.14v.57m1.18-.57v.57m1.27-.57v.57m.55-1.14v.57m-2.37-.57v.57m1.19-1.7v.57m-2.45,5.75v-.64m0-1.7V385m0,1.71v-.57m0-1.71v-.57m0-.57v-.57m0-1.13v-.57m0-.57v-.57m-3,1.49h1.26m1.18-1.7h1.19m1.18,1.7h1.27" transform="translate(-125.5 -307.16)"/><path class="bm" d="M204.15,391.36v-1.5c0-.28-.16-1.13-1.66-1.13s-1.58.85-1.58,1.13v1.5Z" transform="translate(-125.5 -307.16)"/><path class="bm" d="M201.46,389.94l-.79-.08c0-.28.08-.71.32-.85l.71.5A.76.76,0,0,0,201.46,389.94Z" transform="translate(-125.5 -307.16)"/><path class="bm" d="M202.8,389.22l.4-.64a2.13,2.13,0,0,0-.71-.14,2,2,0,0,0-.63.14l.39.64Z" transform="translate(-125.5 -307.16)"/><path class="bm" d="M203.59,389.94l.79-.08c0-.28-.08-.71-.31-.85l-.71.5A.81.81,0,0,1,203.59,389.94Z" transform="translate(-125.5 -307.16)"/><path class="bm" d="M201.3,387.45v-1.57a.87.87,0,0,0-1.73,0v1.57Z" transform="translate(-125.5 -307.16)"/><path class="bm" d="M203.75,387.45v-1.57a.88.88,0,0,1,1.74,0v1.57Z" transform="translate(-125.5 -307.16)"/><path class="bm" d="M200.75,383.61l.08-1.42h-1.5l.16,1.42Z" transform="translate(-125.5 -307.16)"/><path class="bm" d="M203.12,383.61l.16-1.42h-1.5l.08,1.42Z" transform="translate(-125.5 -307.16)"/><path class="bm" d="M204.3,383.61l-.15-1.42h1.58l-.16,1.42Z" transform="translate(-125.5 -307.16)"/><path class="bn" d="M203.59,391.36v-1.28c0-.22-.16-.86-1.1-.86a.91.91,0,0,0-1,.86v1.28Z" transform="translate(-125.5 -307.16)"/><path class="bn" d="M201.14,387.3V386a.71.71,0,1,0-1.42,0v1.35Z" transform="translate(-125.5 -307.16)"/><path class="bn" d="M203.91,387.3V386a.71.71,0,0,1,1.42,0v1.35Z" transform="translate(-125.5 -307.16)"/><path class="bf" d="M211.06,393.73h17.2V376.58h-17.2Z" transform="translate(-125.5 -307.16)"/><path class="bo" d="M219.83,380.81l0-.19,0-.11a3.7,3.7,0,0,1-.84,0,2.18,2.18,0,0,1-.82-.38c-.27-.21-.38-.34-.57-.37a1.38,1.38,0,0,0-.82.13,1.54,1.54,0,0,1,.6.4,1.72,1.72,0,0,0,.67.47,10.14,10.14,0,0,0,1.1,0l.63.06Z" transform="translate(-125.5 -307.16)"/><path class="bp" d="M222.4,380.11s0,.23,0,.43-.07.39,0,.5a2,2,0,0,0,.11.29,1.41,1.41,0,0,1,.07.29l-.25-.17-.21-.14,0,.32a.83.83,0,0,0,.18.38,2,2,0,0,1,.36.41,1.47,1.47,0,0,1,0,.45s-.16-.24-.3-.28a4.41,4.41,0,0,1-.43-.19.82.82,0,0,1,.27.48,1.49,1.49,0,0,1-.11.49,1.31,1.31,0,0,0-.29-.34,3.7,3.7,0,0,0-.38-.28,1.77,1.77,0,0,1,.18.6c0,.24-.06.76-.06.76a1.33,1.33,0,0,0-.27-.3,2.61,2.61,0,0,1-.34-.24,1.25,1.25,0,0,1,.18.36,3,3,0,0,0,.66,1.44,1.72,1.72,0,0,0,1.88.92c1.06-.24.67-1.53.44-2.13a5.06,5.06,0,0,1-.32-1.5c0-.23.2-.91.17-1a2.42,2.42,0,0,1,.05-1,4.84,4.84,0,0,1,.33-.74,1.59,1.59,0,0,0,.15-.41,2.85,2.85,0,0,0,0-.42s.2.32.25.44a1.87,1.87,0,0,1,.05.46.7.7,0,0,1,.33-.51,4.68,4.68,0,0,0,.73-.45.79.79,0,0,0,.11-.15,2,2,0,0,1-.21.82c-.12.15-.61.64-.61.64a2.16,2.16,0,0,1,.43-.09h.29a2.62,2.62,0,0,0-.48.5c-.27.36-.16.39-.36.69s-.36.31-.61.48-.17,1.34-.12,1.5a14.65,14.65,0,0,1,.71,1.78,1.59,1.59,0,0,1-.55,1.48,4.12,4.12,0,0,1-1.2.38,1,1,0,0,0-.44.89.77.77,0,0,0,.39.78c.18.13.4.06.45.17a.61.61,0,0,0,.15.23.25.25,0,0,1,.1.25c0,.12-.31.38-.41.57a4.47,4.47,0,0,0-.3.76.84.84,0,0,0,.06.42s.31.33.1.39-.27-.08-.33-.06a2.52,2.52,0,0,0-.34.14c-.12,0-.12-.08-.13-.24s0-.22-.06-.22-.11.06-.13.14,0,.27-.1.27-.21-.14-.28-.17-.28-.06-.3-.14a.37.37,0,0,1,.26-.3c.14,0,.26-.09.18-.16a.21.21,0,0,0-.26,0c-.09.07-.27,0-.26-.08a1.38,1.38,0,0,0,0-.26c0-.06-.16-.16,0-.26s.29.09.49.06a.55.55,0,0,0,.37-.2.41.41,0,0,0-.08-.47c-.13-.14-.27-.16-.32-.24a2.62,2.62,0,0,1-.12-.29,2,2,0,0,1,0,.43,1.32,1.32,0,0,0,0,.27,3.24,3.24,0,0,0-.25-.24,1.55,1.55,0,0,1-.22-.43s0,.3,0,.42.15.22.1.26-.28-.22-.35-.26a1.28,1.28,0,0,1-.34-.33,2.89,2.89,0,0,1-.18-.43,1.35,1.35,0,0,1,0-.49c.06-.12.16-.35.16-.35h-.48c-.26,0-.45-.07-.55.09s-.05.47.07.89.2.6.17.68a1.12,1.12,0,0,1-.26.27.47.47,0,0,1-.31,0,1,1,0,0,0-.43-.08,3,3,0,0,1-.47,0c-.09,0-.3-.12-.4-.09s-.27.09-.22.22-.08.23-.18.22a2.6,2.6,0,0,1-.31-.07c-.12,0-.3,0-.28-.13s.08-.14.14-.23.08-.16,0-.17a.4.4,0,0,0-.24,0c-.07,0-.17.15-.26.11s-.16-.13-.16-.33-.23-.37,0-.36.48.15.53,0,0-.16-.1-.24-.26-.13-.1-.24a1.86,1.86,0,0,0,.25-.16c.06-.06.14-.25.25-.2s0,.22.22.44a.71.71,0,0,0,.71.25c.35,0,.45-.07.45-.16a2.53,2.53,0,0,0,0-.32,1.53,1.53,0,0,1,0-.31.79.79,0,0,0-.22.18,2.82,2.82,0,0,1-.14.25,1.5,1.5,0,0,1,0-.34c0-.09,0-.24,0-.27a2.49,2.49,0,0,0-.08-.29,1.47,1.47,0,0,1-.09.29,1.29,1.29,0,0,0-.06.33.49.49,0,0,1-.16-.48c0-.23,0-.53,0-.63a.87.87,0,0,1,.7-.52c.44,0,.79,0,1,0s.7-.1.7-.1-1-.47-1.24-.61a3.29,3.29,0,0,1-.71-.67,2.23,2.23,0,0,1-.22-.49,1.07,1.07,0,0,0-.35.09,1.91,1.91,0,0,0-.43.31c-.09.1-.25.32-.25.32s0-.29,0-.38,0-.26,0-.26a1.11,1.11,0,0,1-.34.54c-.24.15-.51.35-.51.35s0-.21,0-.27.06-.3.06-.3a.71.71,0,0,1-.41.26c-.26,0-.62,0-.65.18s.06.33,0,.42a.57.57,0,0,1-.19.17.61.61,0,0,0-.27-.12.52.52,0,0,0-.24.05s-.11-.12-.07-.2.23-.21.19-.26-.21,0-.3.06-.3.08-.28-.06.07-.22,0-.32,0-.16.07-.19.38,0,.41-.06-.08-.14-.28-.18-.3-.15-.2-.24a.84.84,0,0,0,.19-.2c.05-.08.07-.23.25-.16s.15.26.34.31a1.56,1.56,0,0,0,.74-.07c.1-.05.41-.26.52-.31s.55-.34.55-.34a3.6,3.6,0,0,1-.36-.25,3.32,3.32,0,0,0-.36-.32,3.23,3.23,0,0,0-.66-.2,3.51,3.51,0,0,1-.58-.14,1.36,1.36,0,0,0,.27-.11.79.79,0,0,1,.29-.17h.1a3.62,3.62,0,0,1-.5,0,3.34,3.34,0,0,0-.44-.17,2,2,0,0,0-.28,0,1.63,1.63,0,0,1,.47-.18,2.91,2.91,0,0,1,.37,0,1.07,1.07,0,0,1-.4-.18c-.08-.1-.16-.24-.21-.31s-.1-.17-.21-.18-.29.12-.39.11a.2.2,0,0,1-.2-.21c0-.14,0-.09,0-.17s-.2-.24,0-.28.45,0,.48,0-.16-.2-.29-.25-.33-.16-.22-.24a1.75,1.75,0,0,0,.27-.19c.06-.07.13-.28.25-.22s.3.39.4.37.1-.26.08-.36,0-.27.1-.25.17.13.33.14.38,0,.36.06a.65.65,0,0,1-.21.33.45.45,0,0,0-.08.46,1.22,1.22,0,0,0,.39.46c.16.09.45.15.63.26a6.45,6.45,0,0,0,.75.45,1.67,1.67,0,0,1,.29.09,1.3,1.3,0,0,1,.39-.06,4.09,4.09,0,0,0,.93,0c.19-.08.44-.2.37-.36s-.51-.29-.47-.42.2-.13.46-.14.61,0,.68-.29.09-.51-.28-.59-.64-.08-.7-.32-.14-.3-.06-.36a.82.82,0,0,1,.48-.12,2.14,2.14,0,0,0,.67-.07c.08-.06.1-.22.21-.28a2.15,2.15,0,0,1,.52-.13,7,7,0,0,1,1,.53,5.12,5.12,0,0,1,.78.69" transform="translate(-125.5 -307.16)"/><path class="ah" d="M217.46,382.08a.79.79,0,0,0-.37.21.52.52,0,0,0-.12.33.67.67,0,0,1,.53-.11c.3.08.33.11.46.1a3.15,3.15,0,0,0,.43-.11s-.25.26-.22.45a2.54,2.54,0,0,1,.06.35,1.36,1.36,0,0,1-.21.5,1.4,1.4,0,0,1,.36-.11,1.69,1.69,0,0,0,.6-.25,2,2,0,0,0,.31-.32,1,1,0,0,0,0,.44,3.14,3.14,0,0,1,.08.52,2.31,2.31,0,0,1,.29-.2.79.79,0,0,0,.3-.21,1.55,1.55,0,0,0,.11-.33,1.2,1.2,0,0,0,.14.42,3.36,3.36,0,0,1,.24.53,1.24,1.24,0,0,1,.2-.37.87.87,0,0,0,.24-.33,1.14,1.14,0,0,0,0-.26l.14.26m-3.9.19a1.17,1.17,0,0,1,.31-.34c.16-.08.37-.23.43-.25a2.44,2.44,0,0,0,.31-.14m.34,1.59.48-.23a1.4,1.4,0,0,0,.4-.34" transform="translate(-125.5 -307.16)"/><path class="i" d="M222.1,381.31a1.07,1.07,0,0,1-.14-.2,1.32,1.32,0,0,1-.08-.14" transform="translate(-125.5 -307.16)"/><path class="ah" d="M220.65,386.4s.7.38.68.71a1.68,1.68,0,0,1-.39.74" transform="translate(-125.5 -307.16)"/><path class="bq" d="M218.85,379.88s-.06-.15-.07-.19a.41.41,0,0,0,0-.09s.3,0,.29.08-.1.09-.12.12l-.06.08Z" transform="translate(-125.5 -307.16)"/><path class="br" d="M220.22,379.45l0-.13a.89.89,0,0,1,.38.08.78.78,0,0,1,.31.32s-.18-.08-.29-.11h-.15c-.08,0-.12,0-.13-.06a.17.17,0,0,1,0-.09Z" transform="translate(-125.5 -307.16)"/><path class="bq" d="M218.86,381.08l.11-.16.12.15h-.23" transform="translate(-125.5 -307.16)"/><path class="bq" d="M219.13,381.07l.14-.16.15.15h-.29" transform="translate(-125.5 -307.16)"/><path class="bq" d="M219,380.06l.28.09-.25.12,0-.21" transform="translate(-125.5 -307.16)"/><path class="bq" d="M219.35,380.14l.25.06-.2.14-.05-.2" transform="translate(-125.5 -307.16)"/><path class="bo" d="M215,379.83a.75.75,0,0,0,.29.12,1.9,1.9,0,0,0,.28,0,.46.46,0,0,0,0-.28.6.6,0,0,0-.45-.45s.11.22.06.33a1.16,1.16,0,0,1-.22.26Z" transform="translate(-125.5 -307.16)"/><path class="bo" d="M214.24,380.15a.47.47,0,0,0-.45-.21.93.93,0,0,0-.51.25,1.38,1.38,0,0,1,.42,0,.47.47,0,0,1,.17.27,1.22,1.22,0,0,0,.24-.17,1.12,1.12,0,0,0,.13-.18Z" transform="translate(-125.5 -307.16)"/><path class="bo" d="M213.87,381.11a.85.85,0,0,0-.41.19.6.6,0,0,0-.12.43.59.59,0,0,1,.32-.17,2.5,2.5,0,0,1,.4.05.9.9,0,0,1-.08-.25.86.86,0,0,0-.11-.25Z" transform="translate(-125.5 -307.16)"/><path class="bo" d="M214.75,384.23a.49.49,0,0,0-.4-.1.73.73,0,0,0-.42.3,1.23,1.23,0,0,1,.35,0,.46.46,0,0,1,.21.14,1.44,1.44,0,0,0,.15-.14,1.11,1.11,0,0,0,.11-.17Z" transform="translate(-125.5 -307.16)"/><path class="bo" d="M214.46,385.14a.61.61,0,0,0-.4.1.57.57,0,0,0-.19.39.52.52,0,0,1,.31-.11,1.22,1.22,0,0,1,.3.08s0-.16,0-.2a.35.35,0,0,0,0-.26Z" transform="translate(-125.5 -307.16)"/><path class="bo" d="M215,386a.6.6,0,0,0,.11.39.65.65,0,0,0,.39.18,1.11,1.11,0,0,1-.09-.24c0-.13.11-.23.11-.23a.42.42,0,0,0-.25-.12l-.27,0Z" transform="translate(-125.5 -307.16)"/><path class="bo" d="M217.46,388.15a.61.61,0,0,0-.41-.19,1,1,0,0,0-.5.22s.3,0,.38.06l.16.21.19-.11a1.37,1.37,0,0,0,.18-.19Z" transform="translate(-125.5 -307.16)"/><path class="bo" d="M216.72,389a.7.7,0,0,0-.48.11.61.61,0,0,0-.14.41.62.62,0,0,1,.37-.17,1.75,1.75,0,0,1,.37.1l-.06-.24a1.56,1.56,0,0,0-.06-.21Z" transform="translate(-125.5 -307.16)"/><path class="bo" d="M217.41,389.93s-.16.2,0,.36a.83.83,0,0,0,.35.23.32.32,0,0,1,0-.25c0-.1.23-.24.23-.24l-.5-.1Z" transform="translate(-125.5 -307.16)"/><path class="bo" d="M221.65,390.31a.84.84,0,0,0-.44,0c-.15.08-.28.43-.28.43a.81.81,0,0,1,.44-.17,1.55,1.55,0,0,1,.32.09.87.87,0,0,0,0-.24,1.11,1.11,0,0,0,0-.13Z" transform="translate(-125.5 -307.16)"/><path class="bo" d="M221.78,391.23s-.21.19-.13.36a2,2,0,0,0,.21.34s0-.25.08-.32a.73.73,0,0,1,.36-.11,1.73,1.73,0,0,0-.25-.17A2.35,2.35,0,0,1,221.78,391.23Z" transform="translate(-125.5 -307.16)"/><path class="bo" d="M222.85,391.51a.34.34,0,0,0,.09.4.74.74,0,0,0,.38.17s-.16-.25-.11-.37a.53.53,0,0,1,.19-.23,1.84,1.84,0,0,0-.29-.06,1.91,1.91,0,0,0-.26.09Z" transform="translate(-125.5 -307.16)"/><path class="f" d="M222.21,378.79h-.1l-.09.11a.26.26,0,0,1-.3,0,.16.16,0,0,1,0-.13.19.19,0,0,1-.18,0,.16.16,0,0,1-.05-.24s0-.05,0-.06v-.1l-.11,0,0,.06a.21.21,0,0,1-.24.05s-.05-.08,0-.09l-.06,0c-.19,0-.26-.32-.26-.42l-.06.08a1.44,1.44,0,0,1,0,.4,2.38,2.38,0,0,1-.1.37,3.21,3.21,0,0,1,1,.5,3.1,3.1,0,0,1,.8.75,2.9,2.9,0,0,1,.4-.16,2,2,0,0,1,.47-.06l.07-.06c-.1,0-.54,0-.53-.14,0,0,0-.05,0-.05a.24.24,0,0,1-.1,0c-.07,0-.07-.13,0-.21l.06,0v-.11l-.12,0,0,0a.23.23,0,0,1-.29,0,.11.11,0,0,1,0-.14.24.24,0,0,1-.15,0,.16.16,0,0,1,0-.25.35.35,0,0,1,.1-.09l0-.1Z" transform="translate(-125.5 -307.16)"/><path class="br" d="M221.44,379s.05,0,.08,0a0,0,0,0,1,0,.06.07.07,0,0,1-.09,0s0-.05,0-.06Z" transform="translate(-125.5 -307.16)"/><path class="br" d="M221.76,379.25l-.11-.08a0,0,0,0,1,0-.05h.06l.11.08.11.08s0,0,0,.05h-.07l-.11-.08" transform="translate(-125.5 -307.16)"/><path class="br" d="M221.17,378.88l-.09,0s0,0,0-.06h.06l.09.05.09,0s0,0,0,.05,0,0-.05,0l-.09-.05" transform="translate(-125.5 -307.16)"/><path class="br" d="M220.81,378.66a.11.11,0,0,1,.08,0s0,0,0,.07a.06.06,0,0,1-.08,0,.05.05,0,0,1,0-.07Z" transform="translate(-125.5 -307.16)"/><path class="br" d="M222.12,379.47s0,0,0-.06a.06.06,0,0,0-.08,0s0,0,0,.06a.06.06,0,0,0,.08,0Z" transform="translate(-125.5 -307.16)"/><path class="br" d="M222.32,379.68l.07.06a0,0,0,0,0,.06,0s0,0,0-.05l-.07-.06-.08-.07s-.05,0-.06,0,0,0,0,.05l.08.07" transform="translate(-125.5 -307.16)"/><path class="br" d="M222.64,379.93s0-.05,0-.07a.06.06,0,0,0-.08,0s0,0,0,.07Z" transform="translate(-125.5 -307.16)"/><path class="f" d="M221.7,378.07h-.2l0,.27,0,0h.05l.26-.16-.09-.15" transform="translate(-125.5 -307.16)"/><path class="f" d="M221.7,378.07h-.2l0,.27,0,0h.05l.26-.16-.09-.15" transform="translate(-125.5 -307.16)"/><path class="f" d="M221.15,378.22v.16l.31,0,0,0v0l-.19-.22-.17.09" transform="translate(-125.5 -307.16)"/><path class="f" d="M221.8,378.55l-.16.08-.19-.22v0l.05,0,.31,0v.17" transform="translate(-125.5 -307.16)"/><path class="f" d="M221.4,378.34a.09.09,0,0,1,.13,0,.07.07,0,0,1,0,.11.11.11,0,0,1-.13,0A.08.08,0,0,1,221.4,378.34Z" transform="translate(-125.5 -307.16)"/><path class="f" d="M220.66,378.07s0-.14-.09-.22a.5.5,0,0,0-.13-.13.31.31,0,0,1,.3,0c.13.1,0,.27,0,.27a.23.23,0,0,1-.07.06Z" transform="translate(-125.5 -307.16)"/><path class="f" d="M221,378.16l-.14.12-.23-.19,0,0V378l.31,0,0,.16" transform="translate(-125.5 -307.16)"/><path class="f" d="M220.62,378.05a.08.08,0,0,1,.1-.06s.05.05,0,.1a.1.1,0,0,1-.1.06A.07.07,0,0,1,220.62,378.05Z" transform="translate(-125.5 -307.16)"/><path class="f" d="M222.48,378.5h-.21l-.08.26,0,0h0l.28-.12-.06-.17" transform="translate(-125.5 -307.16)"/><path class="f" d="M221.91,378.58l0,.17.31.07h0v0l-.15-.25-.18.06" transform="translate(-125.5 -307.16)"/><path class="f" d="M222.5,379l-.18.06-.15-.24v0h0l.3.07,0,.16" transform="translate(-125.5 -307.16)"/><path class="f" d="M222.13,378.74a.09.09,0,0,1,.13,0,.07.07,0,0,1,0,.12.12.12,0,0,1-.14,0,.08.08,0,0,1,0-.12Z" transform="translate(-125.5 -307.16)"/><path class="f" d="M223.15,379.07l0,.17-.3.09h0v0L223,379l.2,0" transform="translate(-125.5 -307.16)"/><path class="f" d="M223.1,379.56l-.19,0-.11-.26v0h.06l.29.11-.06.16" transform="translate(-125.5 -307.16)"/><path class="f" d="M222.58,379.09l-.06.16.29.1h.05v0l-.1-.25-.19,0" transform="translate(-125.5 -307.16)"/><path class="f" d="M222.9,379.38a.08.08,0,0,0,0-.12.12.12,0,0,0-.14,0,.08.08,0,0,0,0,.12.12.12,0,0,0,.14,0Z" transform="translate(-125.5 -307.16)"/><path class="f" d="M223.37,379.94l.27,0a.63.63,0,0,1,.18.08s0-.13-.1-.24-.3.06-.3.06a.25.25,0,0,0,0,.07Z" transform="translate(-125.5 -307.16)"/><path class="f" d="M223.19,379.66l-.1.15.26.15,0,0h0l0-.27h-.19" transform="translate(-125.5 -307.16)"/><path class="f" d="M223.4,380s.07-.07,0-.1a.1.1,0,0,0-.12,0c-.05,0-.07.07-.05.09S223.35,380,223.4,380Z" transform="translate(-125.5 -307.16)"/><ellipse class="bs" cx="85.61" cy="86.5" rx="5.56" ry="5.63"/><ellipse class="bt" cx="85.61" cy="86.48" rx="3.91" ry="4.13"/><path class="bu" d="M209.27,390.81a1.56,1.56,0,0,0-.46.88,1.82,1.82,0,0,0,.19.78.51.51,0,0,0-.48-.29.47.47,0,0,0-.51.44.49.49,0,0,0,.08.23l.17.31a.34.34,0,0,1,.33-.18.35.35,0,0,1,.37.31.19.19,0,0,1,0,.08h-.42v.32h.37l-.28.5.37-.13.28.28.28-.28.37.13-.27-.5H210v-.32h-.42a.19.19,0,0,1,0-.08A.34.34,0,0,1,210,393a.36.36,0,0,1,.34.18l.17-.31a.63.63,0,0,0,.08-.23.48.48,0,0,0-.51-.44.5.5,0,0,0-.48.29,1.82,1.82,0,0,0,.19-.78,1.55,1.55,0,0,0-.47-.88Z" transform="translate(-125.5 -307.16)"/><path class="bv" d="M208.53,393.69H210v-.32h-1.49Z" transform="translate(-125.5 -307.16)"/><path class="bu" d="M212.9,390.81a1.56,1.56,0,0,0-.46.88,1.82,1.82,0,0,0,.19.78.51.51,0,0,0-.48-.29.48.48,0,0,0-.51.44.63.63,0,0,0,.08.23l.17.31a.34.34,0,0,1,.33-.18.34.34,0,0,1,.37.31.19.19,0,0,1,0,.08h-.42v.32h.38l-.28.5.36-.13.28.28.29-.28.36.13-.27-.5h.37v-.32h-.42v-.08a.38.38,0,0,1,.69-.13l.17-.31a.63.63,0,0,0,.08-.23.48.48,0,0,0-.51-.44.51.51,0,0,0-.48.29,1.75,1.75,0,0,0,.2-.78,1.54,1.54,0,0,0-.48-.88Z" transform="translate(-125.5 -307.16)"/><path class="bv" d="M212.16,393.69h1.49v-.32h-1.49Z" transform="translate(-125.5 -307.16)"/><path class="bu" d="M211.08,393.62a1.6,1.6,0,0,0-.46.88,1.75,1.75,0,0,0,.2.78.53.53,0,0,0-.49-.29.48.48,0,0,0-.51.44.68.68,0,0,0,.08.24l.17.3a.36.36,0,0,1,.34-.17.33.33,0,0,1,.36.31.17.17,0,0,1,0,.07h-.42v.31h.38l-.28.5.37-.13.27.28.29-.28.37.13-.28-.5h.37v-.31h-.42v-.07a.33.33,0,0,1,.36-.31.35.35,0,0,1,.33.17l.17-.3a.53.53,0,0,0,.08-.24.48.48,0,0,0-.51-.44.51.51,0,0,0-.48.29,1.75,1.75,0,0,0,.2-.78,1.58,1.58,0,0,0-.48-.88Z" transform="translate(-125.5 -307.16)"/><path class="bv" d="M210.34,396.5h1.49v-.31h-1.49Z" transform="translate(-125.5 -307.16)"/><rect class="bw" y="150.2" width="170.95" height="118.08"/><rect class="bx" x="170.95" y="150.2" width="170.95" height="118.08"/><rect class="by" x="341.89" y="150.2" width="170.95" height="118.08"/></svg>