<svg xmlns="http://www.w3.org/2000/svg" version="1.1" xmlns:xlink="http://www.w3.org/1999/xlink" xmlns:svgjs="http://svgjs.com/svgjs" width="512" height="512" x="0" y="0" viewBox="0 0 512 512" style="enable-background:new 0 0 512 512" xml:space="preserve" class=""><g><path d="M188.821 377.6c37.49 37.491 98.274 37.491 135.765.001l.001-.001 68.523-68.523c12.712-12.278 13.064-32.536.786-45.248-12.278-12.712-32.536-13.064-45.248-.786-.267.257-.529.52-.786.786l-59.371 59.349L288 32c0-17.673-14.327-32-32-32-17.673 0-32 14.327-32 32l.448 290.709-58.901-58.901c-12.712-12.278-32.97-11.926-45.248.786-11.977 12.401-11.977 32.061 0 44.462l68.522 68.544z" fill="#ffffff" data-original="#000000" class=""></path><path d="M480 309.333c-17.673 0-32 14.327-32 32v97.941a8.746 8.746 0 0 1-8.725 8.725H72.725A8.746 8.746 0 0 1 64 439.274v-97.941c0-17.673-14.327-32-32-32s-32 14.327-32 32v97.941C.047 479.42 32.58 511.953 72.725 512h366.549c40.146-.047 72.678-32.58 72.725-72.725v-97.941C512 323.66 497.673 309.333 480 309.333z" fill="#ffffff" data-original="#000000" class=""></path></g></svg>