<svg xmlns="http://www.w3.org/2000/svg" version="1.1" xmlns:xlink="http://www.w3.org/1999/xlink" xmlns:svgjs="http://svgjs.com/svgjs" width="512" height="512" x="0" y="0" viewBox="0 0 24 24" style="enable-background:new 0 0 512 512" xml:space="preserve" class=""><g><path d="m12 23.462-.866-.612C9.994 22.044 0 14.783 0 8.15A7.036 7.036 0 0 1 6.75.875 6.57 6.57 0 0 1 12 3.582 6.57 6.57 0 0 1 17.25.875 7.036 7.036 0 0 1 24 8.15c0 6.633-9.994 13.894-11.134 14.7ZM6.75 3.875A4.043 4.043 0 0 0 3 8.15c0 3.916 5.863 9.21 9 11.611 3.137-2.4 9-7.695 9-11.611a4.043 4.043 0 0 0-3.75-4.275A4.043 4.043 0 0 0 13.5 8.15h-3a4.043 4.043 0 0 0-3.75-4.275Z" fill="#ffffff" data-original="#000000" class=""></path></g></svg>