<?xml version="1.0" encoding="UTF-8"?>
<svg id="Layer_1" data-name="Layer 1" xmlns="http://www.w3.org/2000/svg" viewBox="0 0 991.5 185.26">
  <defs>
    <style>
      .cls-1, .cls-2 {
        stroke-width: 3px;
      }

      .cls-1, .cls-2, .cls-3, .cls-4, .cls-5 {
        fill: none;
        stroke-miterlimit: 10;
      }

      .cls-1, .cls-3, .cls-4, .cls-5 {
        stroke: #fff;
      }

      .cls-2 {
        stroke: #000;
      }

      .cls-3 {
        stroke-width: 5px;
      }

      .cls-4 {
        stroke-width: 4px;
      }

      .cls-5 {
        stroke-width: 8px;
      }

      .cls-6 {
        fill: #fff;
        stroke-width: 0px;
      }
    </style>
  </defs>
  <polygon class="cls-6" points="156.5 116 219.5 113 225.5 88 189.5 89 188.5 81 214.5 79 213.5 56 187.5 57 187.5 48 220.5 47 213.5 22 152.5 25 156.5 116"/>
  <polyline class="cls-6" points="475.5 117 496.5 5 534.5 48 565.5 0 604.5 107 573.5 119 557.5 74 538.5 98 517.5 76 508.5 124 475.5 117.58"/>
  <polygon class="cls-6" points="735.5 26 739.2 117.11 771.5 116 769.5 78 799.5 123 825.5 105 797.5 68 819.5 30 792.5 16 769.5 64 767.5 24 735.5 26"/>
  <polygon class="cls-6" points="891.5 117 900.5 92 864.5 90 864.5 81.16 889.5 82 891.5 59 865.5 57 866.5 49 899.5 50 895.5 25 833.5 22 829.5 113 891.5 117"/>
  <polyline class="cls-6" points="921.5 113 926.5 75 901.5 24 931.5 14 945.5 48 967.5 18 991.5 34 958.5 77 954.1 117 921.5 113"/>
  <path class="cls-6" d="M241.24,19.51l39.92,4.96c4.47.56,8.89,1.81,13.25,3.76,4.36,1.95,8.19,4.57,11.49,7.86,3.3,3.29,5.8,7.21,7.5,11.77,1.7,4.56,2.23,9.49,1.57,14.8-.66,5.31-2.37,9.87-5.11,13.69-2.75,3.82-6.11,6.8-10.08,8.94-3.98,2.14-8.27,3.54-12.9,4.18-4.63.65-9.23.69-13.83.12l-10.6-1.32-2.92,23.52c-.06.48-.29.88-.69,1.2-.4.32-.83.45-1.31.39l-27.56-3.43c-.47-.06-.86-.29-1.17-.7-.31-.41-.43-.85-.37-1.33l10.8-86.84c.06-.48.29-.88.69-1.2s.83-.45,1.31-.39h0ZM274.22,65.87c2.35.29,4.51-.18,6.45-1.4,1.95-1.23,3.08-3.11,3.39-5.64.32-2.53-.32-4.63-1.91-6.3-1.59-1.67-3.56-2.65-5.91-2.94l-8.83-1.1-2.02,16.28,8.83,1.1h0Z"/>
  <g>
    <path class="cls-6" d="M419.95,184.76l-6.16-29.51c-.03-.16,0-.32.09-.47.1-.15.23-.24.39-.28l9.53-1.99c.16-.03.32,0,.47.09.15.1.24.23.27.39l4.49,21.52,12.23-2.55c.16-.03.32,0,.47.09.15.1.24.23.27.39l1.54,7.38c.09.41-.08.66-.49.74l-22.38,4.67c-.16.04-.32,0-.47-.09-.15-.1-.24-.23-.27-.39Z"/>
    <path class="cls-6" d="M472.63,151.3l11.24,30.27c.04.17.02.3-.06.41-.08.11-.21.16-.38.16h-10.8c-.42,0-.71-.19-.88-.57l-1.38-3.83c-.04-.17-.16-.31-.35-.44-.19-.13-.35-.19-.47-.19h-8.41c-.13,0-.28.06-.47.19-.19.12-.3.27-.35.44l-1.26,3.83c-.17.38-.44.57-.82.57h-10.8c-.17,0-.28-.06-.35-.19-.06-.13-.07-.25-.03-.38l10.68-30.27c.17-.38.46-.57.88-.57h13.12c.42,0,.71.19.88.57ZM468.3,169.51l-2.95-8.67-2.7,8.67h5.65Z"/>
    <path class="cls-6" d="M484.34,150.95c-.02-.17.03-.32.14-.46s.25-.22.42-.23l9.68-1.02c.17-.02.32.03.46.14.14.11.22.25.23.42l1.75,16.55c.23,2.21.84,3.75,1.82,4.64.98.89,2.28,1.24,3.9,1.07,1.62-.17,2.76-.75,3.41-1.75.65-.99.86-2.64.62-4.93l-1.76-16.61c-.02-.17.03-.32.14-.46s.25-.22.42-.23l9.68-1.02c.17-.02.32.03.46.14.14.11.22.25.23.42l1.81,17.11c.23,2.21-.1,4.56-.99,7.05-.9,2.49-2.46,4.53-4.69,6.12-2.23,1.58-5.01,2.55-8.34,2.9-4.96.52-8.97-.23-12.05-2.26-3.08-2.03-4.92-5.5-5.52-10.4l-1.82-17.17Z"/>
    <path class="cls-6" d="M584.44,166.79l7.42,2.06c.14.05.27.15.39.31.11.16.17.33.18.5-.16,1.09-.65,2.44-1.49,4.04-.83,1.6-2.08,3.06-3.74,4.38-1.66,1.32-3.64,2.32-5.92,3-2.33.69-4.66.94-6.98.76s-4.48-.78-6.46-1.79c-1.98-1.01-3.68-2.36-5.1-4.06-1.42-1.7-2.46-3.65-3.11-5.86-.64-2.17-.83-4.35-.56-6.55.27-2.2.96-4.23,2.09-6.09,1.13-1.86,2.62-3.5,4.48-4.9,1.86-1.4,3.95-2.45,6.28-3.14,1.12-.33,2.36-.59,3.7-.77,1.34-.18,2.74-.18,4.19,0,1.45.18,2.82.55,4.09,1.11,1.28.56,2.26,1.18,2.94,1.85.09.15.14.31.14.48,0,.17-.04.32-.13.43l-5.5,6.21c-.23.25-.55.27-.96.09-.56-.4-1.36-.65-2.42-.76-1.06-.1-2.19.03-3.39.38-.96.29-1.9.8-2.82,1.55-.91.75-1.55,1.78-1.9,3.09-.36,1.31-.34,2.62.06,3.94.4,1.37,1.11,2.51,2.13,3.43,1.02.92,2.11,1.46,3.29,1.61,1.18.15,2.25.08,3.22-.2,1.32-.39,2.43-1.04,3.32-1.93.89-.9,1.48-1.8,1.78-2.72.03-.05.1-.15.21-.29.11-.14.3-.21.56-.2Z"/>
    <path class="cls-6" d="M595.95,179.55l2.54-30.04c.01-.17.09-.31.22-.42.14-.12.29-.17.45-.15l9.7.82c.17.01.31.09.42.22s.16.29.15.45l-.85,10.01,8.07.68.85-10.01c.01-.17.09-.31.22-.42.14-.11.29-.17.46-.15l9.7.82c.17.01.31.09.42.22.11.14.17.29.15.45l-2.54,30.04c-.04.42-.26.61-.68.57l-9.7-.82c-.17-.01-.31-.09-.42-.22-.11-.14-.16-.29-.15-.45l.95-11.26-8.07-.68-.95,11.26c-.01.17-.09.31-.22.42s-.29.17-.45.15l-9.7-.82c-.42-.04-.61-.26-.57-.68Z"/>
    <path class="cls-6" d="M663.39,179.72l-23.6,4.93c-.16.03-.32,0-.47-.09s-.24-.23-.27-.39l-6.16-29.5c-.03-.16,0-.32.09-.47.1-.15.23-.24.39-.27l23.6-4.93c.16-.03.32,0,.47.09.15.1.24.23.27.39l1.54,7.38c.03.16,0,.32-.09.47-.1.15-.23.24-.39.27l-13.46,2.81.64,3.07,9.53-1.99c.16-.03.32,0,.47.09.15.1.24.23.27.39l1.28,6.15c.09.41-.08.66-.49.74l-9.53,1.99.64,3.07,13.46-2.81c.16-.03.32,0,.47.09.15.1.24.23.27.39l1.54,7.38c.03.17,0,.32-.09.47-.1.15-.23.24-.39.27Z"/>
    <path class="cls-6" d="M695.11,173.4c.66,1.53,1.26,4.32,1.83,8.36.04.17-.01.31-.14.44-.13.12-.28.18-.45.17l-10.67-.39c-.38-.01-.6-.23-.67-.65-.25-2.44-.54-4.25-.87-5.44-.3-.98-.66-1.69-1.08-2.15-.42-.46-1.03-.7-1.83-.73l-2.2-.08-.3,8.16c-.02.42-.23.62-.65.6l-9.73-.36c-.17,0-.31-.07-.43-.2-.12-.13-.18-.28-.17-.45l1.11-30.12c0-.17.08-.31.21-.43s.28-.18.45-.17l14.18.52c1.51.06,3.06.27,4.66.64,1.6.37,3.03.98,4.3,1.82,1.27.84,2.25,1.94,2.96,3.28.71,1.35,1.02,2.94.95,4.78-.08,2.18-.46,3.91-1.13,5.21-.68,1.29-1.42,2.18-2.23,2.65-.81.47-1.45.7-1.91.68-.21,0-.32.09-.33.3,0,.21.09.32.3.33.25,0,.67.16,1.27.46.6.3,1.12.7,1.56,1.22.44.52.78,1.03,1.01,1.55ZM682.54,164.89c.84.03,1.58-.19,2.23-.67.65-.48.98-1.16,1.02-2.04s-.26-1.58-.86-2.11c-.61-.53-1.33-.8-2.17-.83l-3.14-.12-.21,5.65,3.14.12Z"/>
    <path class="cls-6" d="M532.96,181.28l-7.94.34c-.4.02-.61-.17-.63-.58l-1.25-28.89c0-.16.05-.3.16-.43.12-.13.25-.19.41-.2l10.05-.44c.4-.02.73.13.98.44l8.86,11.13-.49-11.38c0-.16.05-.3.16-.43.12-.13.25-.19.41-.2l8-.35c.16,0,.3.05.43.16.13.12.19.25.2.41l1.25,28.89c.02.4-.18.61-.58.63l-8.97.39c-.4.02-.73-.13-.98-.44l-10.12-13.73.61,14.02c0,.16-.05.3-.16.43-.11.12-.25.19-.41.2Z"/>
  </g>
  <path class="cls-6" d="M326.5,94.75c0-16.27,10.96-29.98,25.89-34.17l-2.89-37.58-33,2,6,91,10.62-.62c-4.16-5.81-6.62-12.93-6.62-20.63Z"/>
  <g>
    <circle class="cls-5" cx="362" cy="94.75" r="15.87"/>
    <circle class="cls-4" cx="362" cy="94.75" r="22.53"/>
    <polygon class="cls-6" points="365.67 70.61 358.05 70.65 356.96 61.77 367.11 61.75 365.67 70.61"/>
    <polygon class="cls-6" points="353.11 72.01 346.53 75.86 341.14 68.71 349.93 63.62 353.11 72.01"/>
    <polygon class="cls-6" points="342.93 79.5 339.16 86.12 330.92 82.63 335.98 73.82 342.93 79.5"/>
    <polygon class="cls-6" points="337.86 91.08 337.91 98.7 329.03 99.79 329.01 89.64 337.86 91.08"/>
    <polygon class="cls-6" points="339.26 103.64 343.11 110.22 335.97 115.61 330.87 106.82 339.26 103.64"/>
    <polygon class="cls-6" points="346.76 113.82 353.38 117.59 349.89 125.83 341.08 120.77 346.76 113.82"/>
    <polygon class="cls-6" points="358.34 118.89 365.95 118.84 367.05 127.72 356.9 127.74 358.34 118.89"/>
    <polygon class="cls-6" points="370.9 117.49 377.47 113.64 382.86 120.78 374.08 125.88 370.9 117.49"/>
    <polygon class="cls-6" points="381.08 109.99 384.85 103.37 393.08 106.86 388.03 115.67 381.08 109.99"/>
    <polygon class="cls-6" points="386.14 98.41 386.1 90.8 394.98 89.7 395 99.85 386.14 98.41"/>
    <polygon class="cls-6" points="384.74 85.85 380.89 79.28 388.04 73.89 393.13 82.67 384.74 85.85"/>
    <polygon class="cls-6" points="377.25 75.67 370.63 71.9 374.12 63.67 382.93 68.72 377.25 75.67"/>
  </g>
  <g>
    <path class="cls-6" d="M389,68.75c0-14.91,12.09-27,27-27,3.81,0,7.43.79,10.71,2.21l9.79-16.96c-29.48-16.98-66.95-2.82-73.47,32.28,10.5.3,19.86,5.17,26.16,12.68-.12-1.05-.2-2.12-.2-3.2Z"/>
    <path class="cls-6" d="M439.88,81.34c-4.53,8.57-13.52,14.41-23.88,14.41-7.51,0-14.3-3.07-19.19-8.01.45,2.27.69,4.61.69,7.01,0,6.38-1.69,12.36-4.64,17.54,21.68,7.1,48.99.54,61.64-22.29l-14.62-8.66Z"/>
  </g>
  <g>
    <circle class="cls-3" cx="416" cy="68.75" r="11.54"/>
    <circle class="cls-1" cx="416" cy="68.75" r="16.39"/>
    <polygon class="cls-6" points="418.66 51.19 413.12 51.22 412.33 44.76 419.71 44.75 418.66 51.19"/>
    <polygon class="cls-6" points="409.53 52.21 404.75 55.01 400.83 49.81 407.22 46.1 409.53 52.21"/>
    <polygon class="cls-6" points="402.12 57.66 399.38 62.47 393.39 59.94 397.07 53.53 402.12 57.66"/>
    <polygon class="cls-6" points="398.44 66.08 398.47 71.62 392.01 72.42 392 65.03 398.44 66.08"/>
    <polygon class="cls-6" points="399.46 75.22 402.26 80 397.06 83.92 393.35 77.53 399.46 75.22"/>
    <polygon class="cls-6" points="404.91 82.62 409.72 85.36 407.19 91.36 400.78 87.68 404.91 82.62"/>
    <polygon class="cls-6" points="413.33 86.31 418.87 86.28 419.67 92.73 412.28 92.75 413.33 86.31"/>
    <polygon class="cls-6" points="422.47 85.29 427.25 82.49 431.17 87.68 424.78 91.39 422.47 85.29"/>
    <polygon class="cls-6" points="429.87 79.84 432.61 75.02 438.61 77.56 434.93 83.97 429.87 79.84"/>
    <polygon class="cls-6" points="433.56 71.41 433.53 65.87 439.98 65.08 440 72.46 433.56 71.41"/>
    <polygon class="cls-6" points="432.54 62.28 429.74 57.5 434.93 53.58 438.64 59.97 432.54 62.28"/>
    <polygon class="cls-6" points="427.09 54.87 422.27 52.13 424.81 46.14 431.22 49.82 427.09 54.87"/>
  </g>
  <path class="cls-6" d="M616.5,108.75c0-16.12,10.74-29.72,25.45-34.05l4.55-51.7-33-3-8,91,11.16,1.01c-.1-1.08-.16-2.16-.16-3.26Z"/>
  <g>
    <circle class="cls-5" cx="651.95" cy="108.35" r="15.87"/>
    <circle class="cls-4" cx="651.95" cy="108.35" r="22.53"/>
    <polygon class="cls-6" points="655.62 84.21 648 84.25 646.91 75.37 657.06 75.35 655.62 84.21"/>
    <polygon class="cls-6" points="643.06 85.61 636.48 89.46 631.1 82.32 639.88 77.22 643.06 85.61"/>
    <polygon class="cls-6" points="632.88 93.11 629.11 99.72 620.87 96.23 625.93 87.43 632.88 93.11"/>
    <polygon class="cls-6" points="627.81 104.68 627.86 112.3 618.98 113.4 618.96 103.24 627.81 104.68"/>
    <polygon class="cls-6" points="629.21 117.25 633.06 123.82 625.92 129.21 620.82 120.42 629.21 117.25"/>
    <polygon class="cls-6" points="636.71 127.42 643.33 131.19 639.84 139.43 631.03 134.37 636.71 127.42"/>
    <polygon class="cls-6" points="648.29 132.49 655.91 132.45 657 141.32 646.85 141.35 648.29 132.49"/>
    <polygon class="cls-6" points="660.85 131.09 667.42 127.24 672.81 134.38 664.03 139.48 660.85 131.09"/>
    <polygon class="cls-6" points="671.03 123.59 674.8 116.97 683.03 120.47 677.98 129.27 671.03 123.59"/>
    <polygon class="cls-6" points="676.09 112.01 676.05 104.4 684.93 103.3 684.95 113.46 676.09 112.01"/>
    <polygon class="cls-6" points="674.69 99.45 670.85 92.88 677.99 87.49 683.08 96.27 674.69 99.45"/>
    <polygon class="cls-6" points="667.2 89.27 660.58 85.51 664.07 77.27 672.88 82.33 667.2 89.27"/>
  </g>
  <line class="cls-2" x1="316.5" y1="158.25" x2="316.5" y2="158.25"/>
  <g>
    <path class="cls-6" d="M672,70.75c0-14.91,12.09-27,27-27,6.2,0,11.92,2.1,16.47,5.62l13.03-16.37c-30.5-23.5-78.62-7.59-81.5,36.5-.09,1.4-.12,2.77-.09,4.12,1.66-.24,3.36-.37,5.09-.37,8.3,0,15.93,2.86,21.97,7.63-1.27-3.13-1.97-6.54-1.97-10.13Z"/>
    <path class="cls-6" d="M721.78,85.24c-4.79,7.52-13.2,12.51-22.78,12.51-5.6,0-10.81-1.71-15.12-4.63,2.32,4.72,3.62,10.02,3.62,15.63,0,2.68-.31,5.28-.87,7.78,17.66,3.08,37.28-2.49,49.95-19.57l-14.8-11.72Z"/>
  </g>
  <g>
    <circle class="cls-3" cx="699" cy="70.85" r="11.54"/>
    <circle class="cls-1" cx="699" cy="70.85" r="16.39"/>
    <polygon class="cls-6" points="706.69 54.84 701.38 53.25 702.51 46.84 709.58 48.99 706.69 54.84"/>
    <polygon class="cls-6" points="697.65 53.14 692.26 54.42 690.04 48.3 697.23 46.63 697.65 53.14"/>
    <polygon class="cls-6" points="688.98 56.19 684.95 59.99 679.96 55.81 685.36 50.76 688.98 56.19"/>
    <polygon class="cls-6" points="682.99 63.16 681.4 68.47 674.99 67.34 677.14 60.27 682.99 63.16"/>
    <polygon class="cls-6" points="681.29 72.2 682.57 77.59 676.45 79.82 674.78 72.62 681.29 72.2"/>
    <polygon class="cls-6" points="684.34 80.87 688.14 84.9 683.96 89.89 678.91 84.5 684.34 80.87"/>
    <polygon class="cls-6" points="691.31 86.86 696.62 88.45 695.49 94.86 688.42 92.71 691.31 86.86"/>
    <polygon class="cls-6" points="700.35 88.56 705.74 87.29 707.96 93.4 700.77 95.07 700.35 88.56"/>
    <polygon class="cls-6" points="709.02 85.52 713.05 81.71 718.04 85.9 712.64 90.94 709.02 85.52"/>
    <polygon class="cls-6" points="715.01 78.54 716.6 73.23 723.01 74.36 720.86 81.43 715.01 78.54"/>
    <polygon class="cls-6" points="716.71 69.5 715.43 64.11 721.55 61.89 723.22 69.08 716.71 69.5"/>
    <polygon class="cls-6" points="713.66 60.83 709.86 56.8 714.04 51.81 719.09 57.21 713.66 60.83"/>
  </g>
</svg>