<?xml version="1.0" encoding="UTF-8" standalone="no"?>
<!-- Uploaded to: SVG Repo, www.svgrepo.com, Generator: SVG Repo Mixer Tools -->

<svg
   width="700"
   height="800"
   viewBox="0 0 14 16"
   fill="none"
   version="1.1"
   id="svg1"
   xmlns="http://www.w3.org/2000/svg"
   xmlns:svg="http://www.w3.org/2000/svg">
  <defs
     id="defs1" />
  <path
     d="M 11,6 C 12.6569,6 14,4.65685 14,3 14,1.34315 12.6569,0 11,0 9.34315,0 8,1.34315 8,3 8,3.22371 8.02449,3.44169 8.07092,3.65143 L 4.86861,5.65287 C 4.35599,5.24423 3.70652,5 3,5 1.34315,5 0,6.34315 0,8 c 0,1.65685 1.34315,3 3,3 0.70652,0 1.35599,-0.2442 1.86861,-0.6529 l 3.20231,2.0015 C 8.02449,12.5583 8,12.7763 8,13 c 0,1.6569 1.34315,3 3,3 1.6569,0 3,-1.3431 3,-3 0,-1.6569 -1.3431,-3 -3,-3 -0.7065,0 -1.356,0.2442 -1.86861,0.6529 L 5.92908,8.65143 C 5.97551,8.44169 6,8.22371 6,8 6,7.77629 5.97551,7.55831 5.92908,7.34857 L 9.13139,5.34713 C 9.644,5.75577 10.2935,6 11,6 Z"
     fill="#000000"
     id="path1"
     style="fill:#ffffff;fill-opacity:1" />
</svg>
