<?xml version="1.0" encoding="UTF-8" standalone="no"?>
<!-- Created with Inkscape (http://www.inkscape.org/) -->

<svg
   width="16.914705mm"
   height="16.933334mm"
   viewBox="0 0 16.914705 16.933334"
   version="1.1"
   id="svg1"
   xml:space="preserve"
   xmlns="http://www.w3.org/2000/svg"
   xmlns:svg="http://www.w3.org/2000/svg"><defs
     id="defs1" /><g
     id="layer1"
     transform="translate(-75.066553,-197.68145)"><path
       id="path7-2"
       style="fill:#ffffff;fill-opacity:1;stroke-width:0.264583"
       d="m 83.514611,197.68162 c -4.4868,0 -8.15808,3.4904 -8.448063,7.90391 0.0013,0.002 0.0023,0.004 0.0036,0.006 v -0.001 l 4.549593,1.87481 a 2.1537083,2.1537083 0 0 1 0.396358,-0.21135 c 0.319617,-0.1315 0.655663,-0.19053 0.991154,-0.17519 l 2.071708,-3.00963 -5.29e-4,-0.0419 h -0.0026 c 0,-1.77641 1.442589,-3.22099 3.215825,-3.22099 1.776675,0.004 3.216341,1.44458 3.216341,3.22099 0,1.77641 -1.442312,3.22254 -3.216341,3.22254 l -0.07286,-0.001 -2.96106,2.1177 a 2.3521458,2.3521458 0 0 1 -0.181384,0.96738 2.3495,2.3495 0 0 1 -3.06958,1.26504 c -0.730757,-0.30427 -1.228224,-0.93703 -1.386974,-1.65881 l -3.204456,-1.32188 c 1.057525,3.46981 4.283601,5.99653 8.099248,5.99653 4.675976,0 8.466666,-3.79069 8.466666,-8.46667 0,-4.67597 -3.79069,-8.46666 -8.466666,-8.46666 z m 2.780192,4.20026 a 2.1484166,2.1484166 0 0 0 -2.142505,2.14612 2.1484166,2.1484166 0 0 0 2.142505,2.14664 2.1484166,2.1484166 0 0 0 2.143021,-2.14664 2.1484166,2.1484166 0 0 0 -2.143021,-2.14612 z m 0.0031,0.5302 c 0.887676,0 1.60972,0.72198 1.60972,1.6123 a 1.6113125,1.6113125 0 0 1 -1.60972,1.61231 1.6113125,1.6113125 0 0 1 -1.609205,-1.61231 h 5.3e-4 a 1.6113125,1.6113125 0 0 1 1.608687,-1.6123 z m -5.372283,5.20278 c -0.22635,-0.002 -0.449601,0.0395 -0.658357,0.11885 l 1.085205,0.44804 a 1.3361458,1.3361458 0 0 1 0.718302,1.74666 1.3335,1.3335 0 0 1 -1.744079,0.71934 l -1.046965,-0.43357 a 1.80975,1.80975 0 0 0 0.932243,0.88935 c 0.922601,0.38444 1.984144,-0.0512 2.368847,-0.9772 h -0.0021 c 0.185737,-0.44608 0.186733,-0.94009 0.0026,-1.38803 -0.18415,-0.44793 -0.527927,-0.79843 -0.977718,-0.98443 -0.221985,-0.0922 -0.451644,-0.13713 -0.677995,-0.13901 z" /></g></svg>
