<?xml version="1.0" encoding="UTF-8"?>
<svg id="Layer_1" data-name="Layer 1" xmlns="http://www.w3.org/2000/svg" xmlns:xlink="http://www.w3.org/1999/xlink" viewBox="0 0 122.88 106.18">
  <defs>
    <style>
      .cls-1 {
        fill: url(#linear-gradient);
        fill-rule: evenodd;
      }
    </style>
    <linearGradient id="linear-gradient" x1="5.51" y1="66.61" x2="77.33" y2="54.41" gradientUnits="userSpaceOnUse">
      <stop offset="0" stop-color="#2015ff"/>
      <stop offset=".21" stop-color="#2c11fb"/>
      <stop offset=".59" stop-color="#4e0af3"/>
      <stop offset="1" stop-color="#7900e9"/>
    </linearGradient>
  </defs>
  <path class="cls-1" d="m4.02,44.61h27.36c2.21,0,4.02,1.81,4.02,4.03v53.51c0,2.21-1.81,4.03-4.02,4.03H4.02c-2.21,0-4.02-1.81-4.02-4.03v-53.51c0-2.22,1.81-4.03,4.02-4.03h0ZM63.06,4.47c2.12-10.75,19.72-.85,20.88,16.48.35,5.3-.2,11.47-1.5,18.36h25.15c10.46.41,19.59,7.9,13.14,20.2,1.47,5.36,1.69,11.65-2.3,14.13.5,8.46-1.84,13.7-6.22,17.84-.29,4.23-1.19,7.99-3.23,10.88-3.38,4.77-6.12,3.63-11.44,3.63h-42.47c-6.73,0-10.4-1.85-14.8-7.37v-47.3c12.66-3.42,19.39-20.74,22.79-32.11V4.47h0Z"/>
</svg>