<svg xmlns="http://www.w3.org/2000/svg" version="1.1" xmlns:xlink="http://www.w3.org/1999/xlink" width="512" height="512" x="0" y="0" viewBox="0 0 512.07 512.07" style="enable-background:new 0 0 512 512" xml:space="preserve"><g><path d="M256.035 320.004c-8.837 0-16-7.164-16-16v-112c0-8.836 7.163-16 16-16s16 7.164 16 16v112c0 8.837-7.163 16-16 16z" fill="#ff0000" opacity="1" data-original="#000000"></path><path d="m505.296 400.334-199.19-331.98c-22.6-37.681-77.496-37.754-100.14 0L6.775 400.334c-18.837 31.395 3.826 71.67 40.58 71.67h417.36c36.76 0 59.414-40.28 40.581-71.67zm-40.581 39.67H47.356c-11.922 0-19.232-13.07-13.14-23.21l199.19-331.98c10.219-17.033 35.028-17.053 45.26 0l199.19 331.98c6.085 10.129-1.208 23.21-13.141 23.21z" fill="#ff0000" opacity="1" data-original="#000000"></path><circle cx="256.035" cy="360.004" r="24" fill="#ff0000" opacity="1" data-original="#000000"></circle></g></svg>